<svg xmlns="http://www.w3.org/2000/svg" width="79.802" height="79.803" viewBox="0 0 79.802 79.803">
  <g id="iconfinder_30-UI_app_icons_100.ai_1010127" transform="translate(-0.5 -0.5)">
    <path id="Caminho_3078" data-name="Caminho 3078" d="M40.4,80.3A39.9,39.9,0,1,1,80.3,40.4,39.947,39.947,0,0,1,40.4,80.3Zm0-76.333A36.432,36.432,0,1,0,76.833,40.4,36.472,36.472,0,0,0,40.4,3.97Z" fill="#4ed5a1"/>
    <path id="Caminho_3079" data-name="Caminho 3079" d="M18.167,48.606a5.211,5.211,0,0,1-5.2-5.2L9.5,12.372a8.67,8.67,0,1,1,17.338-.2L23.361,43.6A5.157,5.157,0,0,1,18.167,48.606Zm0-41.636a5.211,5.211,0,0,0-5.2,5.2L16.422,43.2a1.8,1.8,0,0,0,1.745,1.933A1.738,1.738,0,0,0,19.9,43.4l3.48-31.425A5.19,5.19,0,0,0,18.167,6.97Z" transform="translate(22.234 7.409)" fill="#4ed5a1"/>
    <path id="Caminho_3080" data-name="Caminho 3080" d="M15.7,27.909a5.2,5.2,0,1,1,5.2-5.2A5.211,5.211,0,0,1,15.7,27.909Zm0-6.939A1.735,1.735,0,1,0,17.439,22.7,1.738,1.738,0,0,0,15.7,20.97Z" transform="translate(24.697 41.984)" fill="#4ed5a1"/>
  </g>
</svg>
