<svg xmlns="http://www.w3.org/2000/svg" width="15.892" height="19.202" viewBox="0 0 15.892 19.202">
  <g id="Grupo_5545" data-name="Grupo 5545" transform="translate(-18.667 -7)">
    <path id="Caminho_15416" data-name="Caminho 15416" d="M45.985,104.4v1.056a.828.828,0,1,1-1.655,0v-1.213a3.65,3.65,0,0,1-.662-.285v1.5a1.49,1.49,0,1,0,2.98,0v-1.094C46.428,104.381,46.206,104.393,45.985,104.4Z" transform="translate(-20.862 -80.905)" fill="#4ed5a1"/>
    <path id="Caminho_15417" data-name="Caminho 15417" d="M73.985,104.637v1.314a.828.828,0,0,1-1.655,0v-.969a6.49,6.49,0,0,1-.662.053v.916a1.49,1.49,0,1,0,2.98,0v-1.4C74.426,104.582,74.2,104.607,73.985,104.637Z" transform="translate(-44.227 -81.404)" fill="#4ed5a1"/>
    <path id="Caminho_15418" data-name="Caminho 15418" d="M39.212,58.6c-1.918,0-5.545-.346-5.545-1.655V49.331a.331.331,0,1,1,.662,0v7.615c0,.3,1.661.993,4.883.993,3.267,0,4.718-.72,4.718-.993V49.331a.331.331,0,1,1,.662,0v7.615C44.592,58.089,41.89,58.6,39.212,58.6Z" transform="translate(-12.517 -35.047)" fill="#4ed5a1"/>
    <path id="Caminho_15419" data-name="Caminho 15419" d="M80.664,10.228a.5.5,0,0,1-.351-.848l2.235-2.235a.5.5,0,0,1,.7.7l-2.235,2.235A.5.5,0,0,1,80.664,10.228Z" transform="translate(-51.32)" fill="#4ed5a1"/>
    <path id="Caminho_15420" data-name="Caminho 15420" d="M37.9,10.228a.5.5,0,0,1-.351-.146L35.313,7.848a.5.5,0,0,1,.7-.7L38.249,9.38a.5.5,0,0,1-.351.848Z" transform="translate(-13.769)" fill="#4ed5a1"/>
    <path id="Caminho_15421" data-name="Caminho 15421" d="M97.157,55.115a1.492,1.492,0,0,1-1.49-1.49V48.99a1.49,1.49,0,0,1,2.98,0v4.635A1.492,1.492,0,0,1,97.157,55.115Zm0-6.952a.829.829,0,0,0-.828.828v4.635a.828.828,0,0,0,1.655,0V48.99A.829.829,0,0,0,97.157,48.162Z" transform="translate(-64.254 -33.796)" fill="#4ed5a1"/>
    <path id="Caminho_15422" data-name="Caminho 15422" d="M21.157,55.115a1.492,1.492,0,0,1-1.49-1.49V48.99a1.49,1.49,0,1,1,2.98,0v4.635A1.492,1.492,0,0,1,21.157,55.115Zm0-6.952a.829.829,0,0,0-.828.828v4.635a.828.828,0,0,0,1.655,0V48.99A.829.829,0,0,0,21.157,48.162Z" transform="translate(-0.834 -33.796)" fill="#4ed5a1"/>
    <path id="Caminho_15423" data-name="Caminho 15423" d="M39.212,25.118c-1.918,0-5.545-.346-5.545-1.655a5.463,5.463,0,1,1,10.925,0C44.592,24.606,41.89,25.118,39.212,25.118Zm-.083-6.456a4.806,4.806,0,0,0-4.8,4.8c0,.3,1.661.993,4.883.993,3.267,0,4.718-.72,4.718-.993A4.806,4.806,0,0,0,39.13,18.662Z" transform="translate(-12.517 -9.179)" fill="#4ed5a1"/>
    <path id="Caminho_15424" data-name="Caminho 15424" d="M48.66,37.986a.993.993,0,1,1,.993-.993A.994.994,0,0,1,48.66,37.986Zm0-1.324a.331.331,0,1,0,.331.331A.331.331,0,0,0,48.66,36.662Z" transform="translate(-24.199 -24.199)" fill="#4ed5a1"/>
    <path id="Caminho_15425" data-name="Caminho 15425" d="M74.66,37.986a.993.993,0,1,1,.993-.993A.994.994,0,0,1,74.66,37.986Zm0-1.324a.331.331,0,1,0,.331.331A.331.331,0,0,0,74.66,36.662Z" transform="translate(-45.896 -24.199)" fill="#4ed5a1"/>
    <path id="Caminho_15426" data-name="Caminho 15426" d="M28.93,34.547a1.657,1.657,0,0,1-1.655-1.655v-.67c-.438.012-.884.01-1.324-.005v.675a1.655,1.655,0,0,1-3.311,0v-1.13c-1.24-.342-1.821-.776-1.821-1.353v-.659a1.528,1.528,0,0,1-.5.08,1.657,1.657,0,0,1-1.655-1.655V23.539a1.655,1.655,0,0,1,2.348-1.5,5.629,5.629,0,0,1,11.195,0,1.655,1.655,0,0,1,2.348,1.5v4.635A1.657,1.657,0,0,1,32.9,29.829a1.528,1.528,0,0,1-.5-.08v.659c0,.583-.6,1.034-1.821,1.374v1.109A1.657,1.657,0,0,1,28.93,34.547Zm-1.159-3.34a.5.5,0,0,1,.5.5v1.188a.662.662,0,0,0,1.324,0V31.4a.5.5,0,0,1,.383-.483,3.417,3.417,0,0,0,1.438-.563V28.174c0-.274.083-.5.357-.5s.316.222.316.5a.743.743,0,0,0,.817.662.663.663,0,0,0,.662-.662V23.539a.663.663,0,0,0-.662-.662c-.365,0-.828.3-.828.662,0,.274-.057.5-.331.5s-.331-.46-.331-.735l-.166-.673a4.64,4.64,0,0,0-4.635-4.635,4.806,4.806,0,0,0-4.635,4.825l-.176.721c0,.274-.047.5-.321.5s-.357-.331-.357-.605c0-.365-.437-.554-.8-.554a.663.663,0,0,0-.662.662v4.635a.663.663,0,0,0,.662.662c.745,0,.848-.476.848-.631,0-.274-.046-.52.228-.52s.414.215.414.489V30.34a3.652,3.652,0,0,0,1.439.552.5.5,0,0,1,.382.483v1.516a.662.662,0,0,0,1.324,0v-1.2a.5.5,0,0,1,.527-.5,19.722,19.722,0,0,0,2.26.009Z" transform="translate(0 -8.345)" fill="#4ed5a1"/>
    <path id="Caminho_15427" data-name="Caminho 15427" d="M39.212,58.6c-1.918,0-5.545-.346-5.545-1.655V49.331a.331.331,0,1,1,.662,0v7.615c0,.3,1.661.993,4.883.993,3.267,0,4.718-.72,4.718-.993V49.331a.331.331,0,1,1,.662,0v7.615C44.592,58.089,41.89,58.6,39.212,58.6Z" transform="translate(-12.517 -35.047)" fill="#4ed5a1"/>
  </g>
</svg>
