<svg xmlns="http://www.w3.org/2000/svg" width="56.289" height="48.245" viewBox="0 0 56.289 48.245">
  <g id="Grupo_701" data-name="Grupo 701" transform="translate(0.5 0.5)">
    <path id="Caminho_2984" data-name="Caminho 2984" d="M222.745,189.892a4.465,4.465,0,0,1-4.462-4.462v-9.385a4.467,4.467,0,0,1,8.934,0v9.385A4.474,4.474,0,0,1,222.745,189.892Zm0-16.55a2.7,2.7,0,0,0-2.7,2.7v9.385a2.709,2.709,0,0,0,5.418,0v-9.385A2.711,2.711,0,0,0,222.745,173.341Z" transform="translate(-218.283 -148.637)" fill="#444" stroke="#444" stroke-width="1"/>
    <path id="Caminho_2985" data-name="Caminho 2985" d="M226.964,189.892a4.465,4.465,0,0,1-4.461-4.462v-9.385a4.462,4.462,0,1,1,8.923,0v9.385A4.465,4.465,0,0,1,226.964,189.892Zm0-16.55a2.711,2.711,0,0,0-2.714,2.7v9.385a2.715,2.715,0,0,0,5.429,0v-9.385A2.711,2.711,0,0,0,226.964,173.341Z" transform="translate(-176.137 -148.637)" fill="#444" stroke="#444" stroke-width="1"/>
    <path id="Caminho_2986" data-name="Caminho 2986" d="M266.221,194.1a.882.882,0,0,1-.879-.879c0-12.319-9.879-21.969-22.5-21.969S220.34,180.9,220.34,193.222a.874.874,0,1,1-1.747,0c0-13.309,10.649-23.727,24.254-23.727S267.1,179.913,267.1,193.222A.882.882,0,0,1,266.221,194.1Z" transform="translate(-215.196 -169.495)" fill="#444" stroke="#444" stroke-width="1"/>
    <path id="Caminho_2987" data-name="Caminho 2987" d="M235.308,177.176H222.351a.879.879,0,1,1,0-1.758h12.957a1.474,1.474,0,0,0,1.341-1.429.879.879,0,1,1,1.758,0A3.224,3.224,0,0,1,235.308,177.176Z" transform="translate(-186.426 -133.382)" fill="#444" stroke="#444" stroke-width="1"/>
    <path id="Caminho_2988" data-name="Caminho 2988" d="M231.873,181.666h-7.8a3.893,3.893,0,0,1-3.879-3.88v-.9a3.886,3.886,0,0,1,3.879-3.879h7.8a3.886,3.886,0,0,1,3.879,3.879v.9A3.893,3.893,0,0,1,231.873,181.666Zm-7.8-6.9a2.129,2.129,0,0,0-2.121,2.121v.9a2.129,2.129,0,0,0,2.121,2.121h7.8a2.129,2.129,0,0,0,2.121-2.121v-.9a2.129,2.129,0,0,0-2.121-2.121Z" transform="translate(-199.223 -134.421)" fill="#444" stroke="#444" stroke-width="1"/>
  </g>
</svg>
