<svg xmlns="http://www.w3.org/2000/svg" width="15.5" height="13.391" viewBox="0 0 15.5 13.391">
  <g id="Grupo_701" data-name="Grupo 701" transform="translate(-217.783 -168.995)">
    <path id="Caminho_2984" data-name="Caminho 2984" d="M219.453,176.385a1.171,1.171,0,0,1-1.17-1.17v-2.461a1.172,1.172,0,0,1,2.343,0v2.461A1.173,1.173,0,0,1,219.453,176.385Zm0-4.341a.709.709,0,0,0-.709.709v2.461a.71.71,0,0,0,1.421,0v-2.461A.711.711,0,0,0,219.453,172.044Z" transform="translate(0 3.93)" fill="#4ed5a1" stroke="#4ed5a1" stroke-width="1"/>
    <path id="Caminho_2985" data-name="Caminho 2985" d="M223.672,176.385a1.171,1.171,0,0,1-1.17-1.17v-2.461a1.17,1.17,0,1,1,2.34,0v2.461A1.171,1.171,0,0,1,223.672,176.385Zm0-4.341a.711.711,0,0,0-.712.709v2.461a.712.712,0,0,0,1.424,0v-2.461A.711.711,0,0,0,223.672,172.044Z" transform="translate(7.941 3.93)" fill="#4ed5a1" stroke="#4ed5a1" stroke-width="1"/>
    <path id="Caminho_2986" data-name="Caminho 2986" d="M231.084,175.948a.231.231,0,0,1-.231-.231,5.9,5.9,0,0,0-11.8,0,.229.229,0,1,1-.458,0,6.363,6.363,0,0,1,12.722,0A.231.231,0,0,1,231.084,175.948Z" transform="translate(0.582)" fill="#4ed5a1" stroke="#4ed5a1" stroke-width="1"/>
    <path id="Caminho_2987" data-name="Caminho 2987" d="M225.1,174.176h-3.4a.231.231,0,1,1,0-.461h3.4a.387.387,0,0,0,.352-.375.231.231,0,1,1,.461,0A.846.846,0,0,1,225.1,174.176Z" transform="translate(6.002 6.804)" fill="#4ed5a1" stroke="#4ed5a1" stroke-width="1"/>
    <path id="Caminho_2988" data-name="Caminho 2988" d="M223.255,175.277h-2.046a1.021,1.021,0,0,1-1.017-1.017v-.236a1.019,1.019,0,0,1,1.017-1.017h2.046a1.019,1.019,0,0,1,1.017,1.017v.236A1.021,1.021,0,0,1,223.255,175.277Zm-2.046-1.81a.559.559,0,0,0-.556.556v.236a.558.558,0,0,0,.556.556h2.046a.558.558,0,0,0,.556-.556v-.236a.558.558,0,0,0-.556-.556Z" transform="translate(3.591 6.608)" fill="#4ed5a1" stroke="#4ed5a1" stroke-width="1"/>
  </g>
</svg>
