<svg xmlns="http://www.w3.org/2000/svg" width="43.921" height="42.423" viewBox="0 0 43.921 42.423">
  <g id="Grupo_5563" data-name="Grupo 5563" transform="translate(-15.75 -31.75)">
    <path id="Caminho_15396" data-name="Caminho 15396" d="M54.929,45.687V34.995a2.995,2.995,0,1,0-5.989,0v.548c-4.129,2.651-11.76,6.938-17.967,6.938H23.486C19.351,42.481,16,46.5,16,51.464s3.351,8.984,7.486,8.984h.936c1.778,6.966-.744,9.494-.93,11.671a1.507,1.507,0,0,0,1.491,1.8h9.188a1.436,1.436,0,0,0,1.415-1.679c-.26-1.515-1.57-3.9-2.407-7.4a2.991,2.991,0,0,0,2.284-2.9v-.861c5.072,1.284,10.305,4.277,13.475,6.306v.544a2.995,2.995,0,1,0,5.989,0V57.241a5.961,5.961,0,0,0,0-11.554ZM23.486,58.951c-3.3,0-5.989-3.359-5.989-7.486s2.686-7.486,5.989-7.486h7.486V58.951Zm9.867,11.3c.279.721.513,1.329.649,1.8a.3.3,0,0,1-.047.263.306.306,0,0,1-.24.12H25.3a.3.3,0,0,1-.3-.351,9.091,9.091,0,0,1,.43-1.382,15.9,15.9,0,0,0,.515-10.245h5.056l.006.015A30.483,30.483,0,0,0,33.353,70.246Zm.614-8.3a1.479,1.479,0,0,1-1.1,1.417,26.613,26.613,0,0,1-.322-2.822c.471.05.945.129,1.424.215v1.19ZM48.94,65.608c-4.055-2.53-10.607-6.037-16.47-6.578V43.9c5.863-.541,12.415-4.049,16.47-6.578Zm4.492,2.326a1.5,1.5,0,1,1-2.995,0V34.995a1.5,1.5,0,1,1,2.995,0Zm1.5-12.254V47.249a4.464,4.464,0,0,1,0,8.431ZM27.978,49.219a.749.749,0,0,1-.749.749H21.24a.749.749,0,1,1,0-1.5h5.989A.749.749,0,0,1,27.978,49.219Zm0,4.492a.749.749,0,0,1-.749.749H21.24a.749.749,0,1,1,0-1.5h5.989A.749.749,0,0,1,27.978,53.71Z" transform="translate(0 0)" fill="#444" stroke="#444" stroke-width="0.5"/>
  </g>
</svg>
