<svg id="iconfinder_512-14_134552" xmlns="http://www.w3.org/2000/svg" width="15.35" height="12.988" viewBox="0 0 15.35 12.988">
  <path id="Caminho_5" data-name="Caminho 5" d="M210.472,156.52a1.572,1.572,0,0,1-2.2.207h0a1.543,1.543,0,0,1-.21-2.183l7.964-9.563a1.571,1.571,0,0,1,2.2-.207h0a1.543,1.543,0,0,1,.21,2.183Z" transform="translate(-203.444 -144.417)" fill="#fff"/>
  <path id="Caminho_6" data-name="Caminho 6" d="M142.3,236.224a1.543,1.543,0,0,1-.21,2.183h0a1.571,1.571,0,0,1-2.2-.207l-3.982-4.782a1.544,1.544,0,0,1,.21-2.183h0a1.572,1.572,0,0,1,2.2.207Z" transform="translate(-135.548 -225.774)" fill="#fff"/>
</svg>
