<svg xmlns="http://www.w3.org/2000/svg" width="18.199" height="18.2" viewBox="0 0 18.199 18.2">
  <g id="Grupo_5523" data-name="Grupo 5523" transform="translate(0.35 0.35)">
    <path id="Caminho_15401" data-name="Caminho 15401" d="M8.75.729A8.021,8.021,0,1,1,.729,8.75,8.031,8.031,0,0,1,8.75.729M8.75,0A8.75,8.75,0,1,0,17.5,8.75,8.75,8.75,0,0,0,8.75,0Z" fill="#4ed5a1" stroke="#4ed5a1" stroke-width="0.7"/>
    <path id="Caminho_15402" data-name="Caminho 15402" d="M10.781,14.062a3.281,3.281,0,1,1,3.281-3.281A3.285,3.285,0,0,1,10.781,14.062Zm0-5.833a2.552,2.552,0,1,0,2.552,2.552A2.555,2.555,0,0,0,10.781,8.229Z" transform="translate(-2.031 -2.031)" fill="#4ed5a1" stroke="#4ed5a1" stroke-width="0.7"/>
    <path id="Caminho_15403" data-name="Caminho 15403" d="M11.074,7.236a.355.355,0,0,1-.171-.044.364.364,0,0,1-.149-.493,5.84,5.84,0,0,1,7.569-2.548.365.365,0,0,1-.3.664A5.11,5.11,0,0,0,11.4,7.043.366.366,0,0,1,11.074,7.236Z" transform="translate(-2.901 -0.981)" fill="#4ed5a1" stroke="#4ed5a1" stroke-width="0.7"/>
    <path id="Caminho_15404" data-name="Caminho 15404" d="M6.631,13A5.839,5.839,0,0,1,.826,7.68a.365.365,0,0,1,.331-.4.361.361,0,0,1,.4.331,5.107,5.107,0,0,0,5.211,4.656A.365.365,0,1,1,6.782,13Z" transform="translate(-0.223 -1.973)" fill="#4ed5a1" stroke="#4ed5a1" stroke-width="0.7"/>
    <path id="Caminho_15405" data-name="Caminho 15405" d="M12.063,21.082a.365.365,0,0,1-.169-.688,5.113,5.113,0,0,0,2.3-6.6.365.365,0,0,1,.666-.3,5.843,5.843,0,0,1-2.631,7.542A.361.361,0,0,1,12.063,21.082Z" transform="translate(-3.168 -3.597)" fill="#4ed5a1" stroke="#4ed5a1" stroke-width="0.7"/>
  </g>
</svg>
