<svg id="Group_38" data-name="Group 38" xmlns="http://www.w3.org/2000/svg" width="341.042" height="320.8" viewBox="0 0 341.042 320.8">
  <path id="Path_129" data-name="Path 129" d="M0,63.7A169.042,169.042,0,0,0,6.15,98.035a105.71,105.71,0,0,1,27.16,19.473,100.955,100.955,0,0,1,29.979,66.62,163.84,163.84,0,0,0,29.723,19.217V190.278A133.142,133.142,0,0,0,0,63.7" transform="translate(0 99.519)" fill="#00604e"/>
  <path id="Path_130" data-name="Path 130" d="M6.193,39.5A159.522,159.522,0,0,0,.3,68.71a159.408,159.408,0,0,1,23.573,7.943,163.987,163.987,0,0,1,52.271,35.36,168.3,168.3,0,0,1,35.36,52.271,165.268,165.268,0,0,1,12.811,64.058v25.367a186.7,186.7,0,0,0,29.466,5.381V228.342A194.1,194.1,0,0,0,6.193,39.5" transform="translate(0.469 61.711)" fill="#00604e"/>
  <path id="Path_131" data-name="Path 131" d="M184.355,162.726A252.694,252.694,0,0,0,129.522,81.5,256.881,256.881,0,0,0,48.3,26.668c-7.943-3.331-16.143-6.406-24.342-8.968A164.419,164.419,0,0,0,7.3,43.579,226.379,226.379,0,0,1,174.874,262.143v30.748a181.488,181.488,0,0,0,29.466-5.381V262.143a248.858,248.858,0,0,0-19.986-99.417" transform="translate(11.405 27.653)" fill="#00604e"/>
  <path id="Path_132" data-name="Path 132" d="M148.028,65.595A323.155,323.155,0,0,0,52.71,0,163.6,163.6,0,0,0,23.5,19.986,287.6,287.6,0,0,1,211.317,289.8v13.068a161.817,161.817,0,0,0,29.466-19.217,317.813,317.813,0,0,0-24.854-117.353,320.272,320.272,0,0,0-67.9-100.7" transform="translate(36.714 0)" fill="#00604e"/>
  <path id="Path_133" data-name="Path 133" d="M156.345,117.508a101.5,101.5,0,0,1,27.16-19.473,188.739,188.739,0,0,0,6.15-34.335A132.594,132.594,0,0,0,96.9,190.278v13.068a174.607,174.607,0,0,0,29.723-19.473,100.6,100.6,0,0,1,29.723-66.364" transform="translate(151.387 99.519)" fill="#36d75e"/>
  <path id="Path_134" data-name="Path 134" d="M102.423,228.085a162.675,162.675,0,0,1,48.171-116.328A168.3,168.3,0,0,1,202.865,76.4a159.4,159.4,0,0,1,23.573-7.943A175.625,175.625,0,0,0,220.545,39.5,194.24,194.24,0,0,0,72.7,227.829v30.748a189.891,189.891,0,0,0,29.723-5.381V228.085Z" transform="translate(113.579 61.711)" fill="#36d75e"/>
  <path id="Path_135" data-name="Path 135" d="M78.267,261.987A225.851,225.851,0,0,1,245.841,43.679,178.614,178.614,0,0,0,229.186,17.8a213.761,213.761,0,0,0-24.342,8.968A252.694,252.694,0,0,0,123.62,81.6a256.884,256.884,0,0,0-54.833,81.225A254.258,254.258,0,0,0,48.8,262.243V287.61a184.64,184.64,0,0,0,29.723,5.381v-31Z" transform="translate(76.24 27.809)" fill="#36d75e"/>
  <path id="Path_136" data-name="Path 136" d="M54.166,289.8A287.6,287.6,0,0,1,241.983,19.986,163.6,163.6,0,0,0,212.773,0a323.155,323.155,0,0,0-95.318,65.595,320.272,320.272,0,0,0-67.9,100.7A316.5,316.5,0,0,0,24.7,283.39a163.843,163.843,0,0,0,29.723,19.217V289.8Z" transform="translate(38.589)" fill="#36d75e"/>
</svg>
