<svg xmlns="http://www.w3.org/2000/svg" width="56.006" height="44.067" viewBox="0 0 56.006 44.067">
  <g id="Agrupar_4568" data-name="Agrupar 4568" transform="translate(0.538 0.5)">
    <path id="Caminho_12574" data-name="Caminho 12574" d="M404.817,399.706a.916.916,0,0,1-.288-.053L377.921,390.3a.862.862,0,0,1-.523-1.089.849.849,0,0,1,1.089-.523l26.33,9.257,26.33-9.257a.849.849,0,0,1,1.089.523.862.862,0,0,1-.523,1.089l-26.608,9.353A.914.914,0,0,1,404.817,399.706Z" transform="translate(-377.352 -379.274)" fill="#444" stroke="#444" stroke-width="1"/>
    <path id="Caminho_12575" data-name="Caminho 12575" d="M431.425,398.826a.871.871,0,0,1-.277-.042l-26.33-9.268-26.33,9.268a.854.854,0,1,1-.566-1.612l26.608-9.364a.884.884,0,0,1,.576,0l26.608,9.364a.851.851,0,0,1-.288,1.655Z" transform="translate(-377.352 -387.76)" fill="#444" stroke="#444" stroke-width="1"/>
    <path id="Caminho_12576" data-name="Caminho 12576" d="M396.637,408.049c-14.19,0-18.045-3.94-18.205-4.111a.826.826,0,0,1-.235-.577V390.367a.854.854,0,0,1,1.708,0v12.6c.982.737,5.264,3.374,16.732,3.374,11.446,0,15.738-2.627,16.731-3.374v-12.6a.849.849,0,1,1,1.7,0v12.994a.816.816,0,0,1-.224.577C414.682,404.109,410.827,408.049,396.637,408.049Z" transform="translate(-369.171 -370.79)" fill="#444" stroke="#444" stroke-width="1"/>
    <path id="Caminho_12577" data-name="Caminho 12577" d="M382.951,416.712a.85.85,0,0,1-.854-.854V390.072a.854.854,0,1,1,1.708,0v25.786A.857.857,0,0,1,382.951,416.712Z" transform="translate(-331.43 -373.645)" fill="#444" stroke="#444" stroke-width="1"/>
  </g>
</svg>
