<svg xmlns="http://www.w3.org/2000/svg" width="41.678" height="44.077" viewBox="0 0 41.678 44.077">
  <g id="Agrupar_4569" data-name="Agrupar 4569" transform="translate(0.5 0.5)">
    <g id="Agrupar_487" data-name="Agrupar 487">
      <path id="Caminho_1887" data-name="Caminho 1887" d="M244.955,159.683h-29.7a5.492,5.492,0,0,1-5.49-5.482V124.5a5.493,5.493,0,0,1,5.49-5.49h29.7a5.493,5.493,0,0,1,5.49,5.49v29.7A5.492,5.492,0,0,1,244.955,159.683Zm-29.7-39.368a4.193,4.193,0,0,0-4.189,4.189v29.7a4.193,4.193,0,0,0,4.189,4.189h29.7a4.193,4.193,0,0,0,4.189-4.189V124.5a4.193,4.193,0,0,0-4.189-4.189Z" transform="translate(-209.768 -116.605)" fill="#444" stroke="#444" stroke-width="1"/>
      <path id="Caminho_1888" data-name="Caminho 1888" d="M249.795,121.322H210.419a.651.651,0,0,1,0-1.3h39.376a.651.651,0,1,1,0,1.3Z" transform="translate(-209.768 -109.414)" fill="#444" stroke="#444" stroke-width="1"/>
      <g id="Agrupar_486" data-name="Agrupar 486" transform="translate(10.834)">
        <path id="Caminho_1889" data-name="Caminho 1889" d="M211.742,124.826a.646.646,0,0,1-.643-.651v-4.807a.647.647,0,1,1,1.293,0v4.807A.648.648,0,0,1,211.742,124.826Z" transform="translate(-211.1 -118.717)" fill="#444" stroke="#444" stroke-width="1"/>
        <path id="Caminho_1890" data-name="Caminho 1890" d="M213.929,124.826a.653.653,0,0,1-.651-.651v-4.807a.651.651,0,0,1,1.3,0v4.807A.653.653,0,0,1,213.929,124.826Z" transform="translate(-195.562 -118.717)" fill="#444" stroke="#444" stroke-width="1"/>
      </g>
    </g>
    <g id="Agrupar_488" data-name="Agrupar 488" transform="translate(11.794 18.488)">
      <path id="Caminho_1891" data-name="Caminho 1891" d="M219.767,138.088a8.549,8.549,0,1,1,8.541-8.549A8.553,8.553,0,0,1,219.767,138.088Zm0-15.8a7.247,7.247,0,1,0,7.247,7.247A7.253,7.253,0,0,0,219.767,122.291Z" transform="translate(-211.218 -120.99)" fill="#444" stroke="#444" stroke-width="1"/>
      <path id="Caminho_1892" data-name="Caminho 1892" d="M216.98,127.1h-4.14a.653.653,0,0,1-.651-.651v-4.4a.651.651,0,0,1,1.3,0v3.75h3.489a.651.651,0,1,1,0,1.3Z" transform="translate(-204.291 -118.065)" fill="#444" stroke="#444" stroke-width="1"/>
    </g>
  </g>
</svg>
