<svg xmlns="http://www.w3.org/2000/svg" width="61.162" height="79.95" viewBox="0 0 61.162 79.95">
  <g id="Grupo_3789" data-name="Grupo 3789" transform="translate(-134.949 -361.558)">
    <path id="Caminho_10589" data-name="Caminho 10589" d="M185.111,425.458H145.95a1.43,1.43,0,0,1-1.417-1.22l-9.059-59.612a1.412,1.412,0,0,1,.323-1.148,1.467,1.467,0,0,1,1.094-.5h57.28a1.467,1.467,0,0,1,1.094.5,1.413,1.413,0,0,1,.323,1.148l-9.059,59.612A1.43,1.43,0,0,1,185.111,425.458Zm-37.941-2.87h36.7l8.629-56.743H138.559Z" transform="translate(0 15.55)" fill="#4ed5a1" stroke="#4ed5a1" stroke-width="1"/>
    <path id="Caminho_10590" data-name="Caminho 10590" d="M194.169,365.328h-57.28a1.435,1.435,0,1,1,0-2.869h57.28a1.435,1.435,0,1,1,0,2.869Z" transform="translate(0.002 6.793)" fill="#4ed5a1" stroke="#4ed5a1" stroke-width="1"/>
    <path id="Caminho_10591" data-name="Caminho 10591" d="M153.711,372.121H138.05a1.419,1.419,0,0,1-1.166-.592,1.437,1.437,0,0,1-.2-1.291L139,363.044a1.427,1.427,0,0,1,1.363-.987H151.4a1.444,1.444,0,0,1,1.363.987l2.314,7.194a1.437,1.437,0,0,1-.2,1.291A1.419,1.419,0,0,1,153.711,372.121ZM140,369.252h11.732l-1.381-4.324H141.4Z" transform="translate(19.651 0)" fill="#4ed5a1" stroke="#4ed5a1" stroke-width="1"/>
    <path id="Caminho_10592" data-name="Caminho 10592" d="M138.468,408.436A1.424,1.424,0,0,1,137.051,407V364.861a1.426,1.426,0,1,1,2.853,0V407A1.428,1.428,0,0,1,138.468,408.436Z" transform="translate(27.054 23.19)" fill="#4ed5a1" stroke="#4ed5a1" stroke-width="1"/>
    <g id="Grupo_3788" data-name="Grupo 3788" transform="translate(148.879 387.711)">
      <path id="Caminho_10593" data-name="Caminho 10593" d="M143.481,407.4a1.443,1.443,0,0,1-1.417-1.22l-5.848-41.063a1.441,1.441,0,0,1,2.852-.412l5.83,41.063a1.41,1.41,0,0,1-1.2,1.614Z" transform="translate(-136.202 -363.488)" fill="#4ed5a1" stroke="#4ed5a1" stroke-width="1"/>
      <path id="Caminho_10594" data-name="Caminho 10594" d="M139.021,407.4l-.215-.018a1.436,1.436,0,0,1-1.22-1.614l5.848-41.063a1.441,1.441,0,0,1,2.852.412l-5.848,41.063A1.443,1.443,0,0,1,139.021,407.4Z" transform="translate(-112.996 -363.488)" fill="#4ed5a1" stroke="#4ed5a1" stroke-width="1"/>
    </g>
  </g>
</svg>
