<svg xmlns="http://www.w3.org/2000/svg" width="14.908" height="15.912" viewBox="0 0 14.908 15.912">
  <g id="iconfinder_pin2_1622294" transform="translate(-0.502 0.37)">
    <g id="Grupo_3081" data-name="Grupo 3081" transform="translate(-234.448 -286.783)">
      <path id="Caminho_8618" data-name="Caminho 8618" d="M240.178,299.215a.257.257,0,0,1-.188-.081l-3.671-3.784a.26.26,0,0,1,.184-.44h1.376v-7.938a.26.26,0,0,1,.259-.259h4.076a.26.26,0,0,1,.259.259v7.938h1.376a.261.261,0,0,1,.24.159.264.264,0,0,1-.052.282l-3.674,3.784A.255.255,0,0,1,240.178,299.215Zm-3.062-3.788,3.062,3.156,3.059-3.156h-1.023a.26.26,0,0,1-.259-.259v-7.938H238.4v7.938a.26.26,0,0,1-.259.259Z" transform="translate(2.227)" fill="#fff" stroke="#fff" stroke-width="0.6"/>
      <path id="Caminho_8619" data-name="Caminho 8619" d="M249.3,293.929H235.509a.26.26,0,0,1-.259-.259v-2.81a.259.259,0,0,1,.518,0v2.551h13.273v-2.82a.259.259,0,0,1,.518,0v3.079A.26.26,0,0,1,249.3,293.929Z" transform="translate(0 8.097)" fill="#fff" stroke="#fff" stroke-width="0.6"/>
    </g>
  </g>
</svg>
