<svg xmlns="http://www.w3.org/2000/svg" width="56.867" height="36.729" viewBox="0 0 56.867 36.729">
  <g id="Grupo_5471" data-name="Grupo 5471" transform="translate(-209.298 -177.874)">
    <path id="Caminho_2946" data-name="Caminho 2946" d="M264.781,214.153h-54.1a.859.859,0,0,1-.864-.864V179.261a.866.866,0,0,1,.864-.864h54.1a.866.866,0,0,1,.864.864v34.028A.859.859,0,0,1,264.781,214.153Zm-53.234-1.716h52.37V180.124h-52.37Z" transform="translate(0)" fill="#444" stroke="#444" stroke-width="0.9"/>
    <path id="Caminho_2947" data-name="Caminho 2947" d="M237.734,201.478a.84.84,0,0,1-.54-.184L210.15,179.94a.865.865,0,0,1,1.069-1.36l26.514,20.944,26.5-20.944a.883.883,0,0,1,1.22.14.874.874,0,0,1-.151,1.22l-27.043,21.354A.811.811,0,0,1,237.734,201.478Z" transform="translate(0.003 0.001)" fill="#444" stroke="#444" stroke-width="0.9"/>
    <path id="Caminho_2948" data-name="Caminho 2948" d="M210.69,198.713a.864.864,0,0,1-.54-1.544L231.7,180.155a.861.861,0,0,1,1.209.151.871.871,0,0,1-.14,1.209L211.219,198.53A.831.831,0,0,1,210.69,198.713Z" transform="translate(0.003 15.44)" fill="#444" stroke="#444" stroke-width="0.9"/>
    <path id="Caminho_2949" data-name="Caminho 2949" d="M235.243,198.713a.81.81,0,0,1-.529-.183l-21.548-17.014a.851.851,0,0,1-.14-1.209.86.86,0,0,1,1.209-.151l21.548,17.014a.883.883,0,0,1,.14,1.22A.858.858,0,0,1,235.243,198.713Z" transform="translate(29.538 15.44)" fill="#444" stroke="#444" stroke-width="0.9"/>
  </g>
</svg>
