<svg xmlns="http://www.w3.org/2000/svg" width="15.626" height="10.182" viewBox="0 0 15.626 10.182">
  <g id="Grupo_5471" data-name="Grupo 5471" transform="translate(-209.542 -178.12)">
    <path id="Caminho_2946" data-name="Caminho 2946" d="M224.659,188.052H210.052a.232.232,0,0,1-.233-.233V178.63a.234.234,0,0,1,.233-.233h14.607a.234.234,0,0,1,.233.233v9.188A.232.232,0,0,1,224.659,188.052Zm-14.374-.463h14.141v-8.725H210.285Z" transform="translate(0 0)" fill="#00604e" stroke="#00604e" stroke-width="0.5"/>
    <path id="Caminho_2947" data-name="Caminho 2947" d="M217.357,184.629a.227.227,0,0,1-.146-.05l-7.3-5.766a.234.234,0,0,1,.289-.367l7.159,5.655,7.156-5.655a.238.238,0,0,1,.329.038.236.236,0,0,1-.041.329l-7.3,5.766A.219.219,0,0,1,217.357,184.629Z" transform="translate(0.001 0)" fill="#00604e" stroke="#00604e" stroke-width="0.5"/>
    <path id="Caminho_2948" data-name="Caminho 2948" d="M210.054,185.033a.233.233,0,0,1-.146-.417l5.818-4.594a.233.233,0,0,1,.326.041.235.235,0,0,1-.038.327l-5.818,4.594A.224.224,0,0,1,210.054,185.033Z" transform="translate(0.001 3.018)" fill="#00604e" stroke="#00604e" stroke-width="0.5"/>
    <path id="Caminho_2949" data-name="Caminho 2949" d="M218.885,185.033a.219.219,0,0,1-.143-.05l-5.818-4.594a.23.23,0,0,1-.038-.327.232.232,0,0,1,.327-.041l5.818,4.594a.238.238,0,0,1,.038.329A.232.232,0,0,1,218.885,185.033Z" transform="translate(5.774 3.018)" fill="#00604e" stroke="#00604e" stroke-width="0.5"/>
  </g>
</svg>
