<svg xmlns="http://www.w3.org/2000/svg" width="20.745" height="22.134" viewBox="0 0 20.745 22.134">
  <g id="Grupo_1340" data-name="Grupo 1340" transform="translate(246.994 215.976) rotate(180)">
    <g id="Grupo_1339" data-name="Grupo 1339" transform="translate(231.196 194.342)">
      <path id="Caminho_4166" data-name="Caminho 4166" d="M233.17,211.594a.358.358,0,0,1-.255-.107l-5.07-5.227a.356.356,0,0,1,.255-.6H230V194.7a.356.356,0,0,1,.357-.357h5.62a.356.356,0,0,1,.357.357v10.958h1.9a.356.356,0,0,1,.255.6l-5.07,5.227A.358.358,0,0,1,233.17,211.594Zm-4.226-5.222,4.226,4.351,4.226-4.351H235.98a.355.355,0,0,1-.353-.357V195.057h-4.909v10.958a.359.359,0,0,1-.357.357Z" transform="translate(-227.744 -194.342)" fill="#fff" stroke="#fff" stroke-width="1"/>
    </g>
    <path id="Caminho_4167" data-name="Caminho 4167" d="M246.136,202.925h-19.03a.358.358,0,0,1-.357-.357v-3.882a.357.357,0,0,1,.715,0v3.525h18.315v-3.891a.357.357,0,1,1,.715,0v4.248A.358.358,0,0,1,246.136,202.925Z" transform="translate(0 12.551)" fill="#fff" stroke="#fff" stroke-width="1"/>
  </g>
</svg>
