<svg xmlns="http://www.w3.org/2000/svg" width="17.625" height="18" viewBox="0 0 17.625 18">
  <g id="Grupo_5524" data-name="Grupo 5524" transform="translate(-0.107 0.149)">
    <path id="Caminho_15406" data-name="Caminho 15406" d="M4.478,3.361a.365.365,0,0,1-.235-.085A.369.369,0,0,1,4.2,2.756a7.395,7.395,0,0,1,10.885-.51.367.367,0,1,1-.517.522,6.658,6.658,0,0,0-9.8.459A.364.364,0,0,1,4.478,3.361Z" transform="translate(-0.993 0)" fill="#4ed5a1" stroke="#4ed5a1" stroke-width="0.5"/>
    <path id="Caminho_15407" data-name="Caminho 15407" d="M8.919,17.935a8.564,8.564,0,0,1-7.5-12.7l.06-.21a4.258,4.258,0,0,1,1-3.555.368.368,0,0,1,.632.255A2.221,2.221,0,0,0,3.77,3.215a3.872,3.872,0,0,1,1.52-.029h0A2.5,2.5,0,0,1,7.774,1.993a.368.368,0,0,1,.219.584,1.567,1.567,0,0,0-.435,1.485c.137.285.505.447,1.036.458a.368.368,0,0,1,.36.358c.029,1.071-1.616,2.341-2.276,2.666a.774.774,0,0,0-.354.73c.031.257.215.424.546.5a4.672,4.672,0,0,0,1.366-.044,7.929,7.929,0,0,1,1.007-.089,1.543,1.543,0,0,1,1.552.881.369.369,0,0,1-.238.5,2.992,2.992,0,0,0-.91.52,3.927,3.927,0,0,1-1.294.7,6.729,6.729,0,0,0,1.9.3h0a3.427,3.427,0,0,0,1.555-.321,4.293,4.293,0,0,0,1.957-2.743,7.448,7.448,0,0,0-1.286-5.993l-.143-.193a.368.368,0,0,1,.463-.546,8.564,8.564,0,0,1-3.882,16.2ZM2.543,2.625a3.86,3.86,0,0,0-.327,2.347.359.359,0,0,1-.006.179l-.1.333a.335.335,0,0,1-.032.079A7.827,7.827,0,1,0,13.759,3.218a7.722,7.722,0,0,1,.719,5.441,4.965,4.965,0,0,1-2.336,3.212,4.172,4.172,0,0,1-1.886.4h0a6.513,6.513,0,0,1-3.83-1.2.367.367,0,0,1,.36-.614,3.13,3.13,0,0,0,.855.135,2.52,2.52,0,0,0,1.576-.654A5.445,5.445,0,0,1,9.88,9.5a2.99,2.99,0,0,0-1.547-.049,5.248,5.248,0,0,1-1.617.034A1.311,1.311,0,0,1,5.6,8.361a1.491,1.491,0,0,1,.758-1.477,4.908,4.908,0,0,0,1.78-1.669A1.589,1.589,0,0,1,6.9,4.38a1.863,1.863,0,0,1,.136-1.658A2.341,2.341,0,0,0,5.87,3.64c-.066.085-.121.153-.163.2a.368.368,0,0,1-.324.108,5.512,5.512,0,0,0-.874-.084,2.346,2.346,0,0,0-.682.1A.478.478,0,0,1,3.5,3.927,2.621,2.621,0,0,1,2.543,2.625Z" transform="translate(0 -0.334)" fill="#4ed5a1" stroke="#4ed5a1" stroke-width="0.5"/>
  </g>
</svg>
