<svg xmlns="http://www.w3.org/2000/svg" width="47.918" height="47.989" viewBox="0 0 47.918 47.989">
  <g id="Agrupar_4570" data-name="Agrupar 4570" transform="translate(-142.017 -352.803)">
    <g id="Agrupar_3849" data-name="Agrupar 3849" transform="translate(151.845 364.697)">
      <path id="Caminho_10766" data-name="Caminho 10766" d="M146.073,365.592a2.515,2.515,0,0,1-2.513-2.513v-4.7a2.513,2.513,0,1,1,5.026,0v4.7A2.515,2.515,0,0,1,146.073,365.592Zm0-8.3a1.086,1.086,0,0,0-1.082,1.082v4.7a1.082,1.082,0,1,0,2.164,0v-4.7A1.092,1.092,0,0,0,146.073,357.292Z" transform="translate(-143.56 -344.377)" fill="#444" stroke="#444" stroke-width="1"/>
      <path id="Caminho_10767" data-name="Caminho 10767" d="M148.669,365.592a2.515,2.515,0,0,1-2.513-2.513v-4.7a2.513,2.513,0,1,1,5.026,0v4.7A2.516,2.516,0,0,1,148.669,365.592Zm0-8.3a1.086,1.086,0,0,0-1.082,1.082v4.7a1.082,1.082,0,1,0,2.164,0v-4.7A1.086,1.086,0,0,0,148.669,357.292Z" transform="translate(-122.939 -344.377)" fill="#444" stroke="#444" stroke-width="1"/>
      <path id="Caminho_10768" data-name="Caminho 10768" d="M167.879,367.447a.718.718,0,0,1-.715-.716,10.995,10.995,0,0,0-21.983,0,.716.716,0,1,1-1.431,0,12.425,12.425,0,0,1,24.845,0A.717.717,0,0,1,167.879,367.447Z" transform="translate(-142.051 -354.577)" fill="#444" stroke="#444" stroke-width="1"/>
      <path id="Caminho_10769" data-name="Caminho 10769" d="M152.723,359.378H146.23a.711.711,0,0,1,0-1.422h6.493a.479.479,0,0,0,.393-.447.716.716,0,0,1,1.431,0A1.889,1.889,0,0,1,152.723,359.378Z" transform="translate(-127.967 -336.902)" fill="#444" stroke="#444" stroke-width="1"/>
      <path id="Caminho_10770" data-name="Caminho 10770" d="M150.637,361.629h-3.461a2.446,2.446,0,0,1,0-4.892h3.461a2.446,2.446,0,0,1,0,4.892Zm-3.461-3.461a1.015,1.015,0,0,0,0,2.03h3.461a1.015,1.015,0,0,0,0-2.03Z" transform="translate(-134.234 -337.419)" fill="#444" stroke="#444" stroke-width="1"/>
    </g>
    <g id="Agrupar_3851" data-name="Agrupar 3851" transform="translate(142.517 353.303)">
      <path id="Caminho_10771" data-name="Caminho 10771" d="M143.233,377.513a.718.718,0,0,1-.716-.716,23.5,23.5,0,0,1,43.975-11.528.715.715,0,0,1-1.243.706,22.07,22.07,0,0,0-41.3,10.822A.718.718,0,0,1,143.233,377.513Z" transform="translate(-142.517 -353.303)" fill="#444" stroke="#444" stroke-width="1"/>
      <g id="Agrupar_3850" data-name="Agrupar 3850" transform="translate(38.698 8.738)">
        <path id="Caminho_10772" data-name="Caminho 10772" d="M153.507,362.633a26.121,26.121,0,0,0-6.663-5.1l4.329-.268,3.148-2.987A25.919,25.919,0,0,0,153.507,362.633Z" transform="translate(-146.844 -354.28)" fill="#444" stroke="#444" stroke-width="1"/>
      </g>
    </g>
    <g id="Agrupar_3853" data-name="Agrupar 3853" transform="translate(143.215 376.082)">
      <path id="Caminho_10773" data-name="Caminho 10773" d="M163.436,380.06a23.542,23.542,0,0,1-20.516-12.029.717.717,0,0,1,1.252-.7A22.068,22.068,0,0,0,185.5,356.565a.715.715,0,0,1,1.431,0A23.522,23.522,0,0,1,163.436,380.06Z" transform="translate(-140.711 -355.85)" fill="#444" stroke="#444" stroke-width="1"/>
      <g id="Agrupar_3852" data-name="Agrupar 3852" transform="translate(0 7.056)">
        <path id="Caminho_10774" data-name="Caminho 10774" d="M143.436,356.639a25.911,25.911,0,0,0,6.645,5.116l-4.329.259-3.157,2.969A25.843,25.843,0,0,0,143.436,356.639Z" transform="translate(-142.595 -356.639)" fill="#444" stroke="#444" stroke-width="1"/>
      </g>
    </g>
  </g>
</svg>
