<svg id="full-prev" xmlns="http://www.w3.org/2000/svg" width="15.564" height="15.564" viewBox="0 0 15.564 15.564">
  <rect id="Rectangle_2" data-name="Rectangle 2" width="15.564" height="15.564" transform="translate(0)" fill="none"/>
  <path id="iconfinder_chevron_down_1393670_1_" data-name="iconfinder_chevron_down_1393670 (1)" d="M5.662,0A.712.712,0,0,0,5.2.174L.263,4.237A.705.705,0,0,0,.176,5.253a.705.705,0,0,0,1.016.087L5.662,1.654l4.5,3.686a.721.721,0,1,0,.929-1.1L6.155.174A.925.925,0,0,0,5.662,0Z" transform="translate(2.479 13.288) rotate(-90)" fill="#444"/>
  <g id="Group_28" data-name="Group 28" transform="translate(6.447 1.946)">
    <path id="iconfinder_chevron_down_1393670_1_2" data-name="iconfinder_chevron_down_1393670 (1)" d="M5.662,0A.712.712,0,0,0,5.2.174L.263,4.237A.705.705,0,0,0,.176,5.253a.705.705,0,0,0,1.016.087L5.662,1.654l4.5,3.686a.721.721,0,1,0,.929-1.1L6.155.174A.925.925,0,0,0,5.662,0Z" transform="translate(0 11.343) rotate(-90)" fill="#444"/>
  </g>
</svg>
