<svg id="full-next" xmlns="http://www.w3.org/2000/svg" width="15.564" height="15.564" viewBox="0 0 15.564 15.564">
  <rect id="Rectangle_2" data-name="Rectangle 2" width="15.564" height="15.564" fill="none"/>
  <path id="iconfinder_chevron_down_1393670_1_" data-name="iconfinder_chevron_down_1393670 (1)" d="M5.662,5.516A.712.712,0,0,1,5.2,5.342L.263,1.279A.705.705,0,0,1,.176.263.705.705,0,0,1,1.192.176L5.662,3.862,10.16.176a.729.729,0,0,1,1.016.087.729.729,0,0,1-.087,1.016L6.155,5.342A.925.925,0,0,1,5.662,5.516Z" transform="translate(7.569 13.288) rotate(-90)" fill="#444"/>
  <g id="Group_28" data-name="Group 28" transform="translate(3.601 1.946)">
    <path id="iconfinder_chevron_down_1393670_1_2" data-name="iconfinder_chevron_down_1393670 (1)" d="M5.662,5.516A.712.712,0,0,1,5.2,5.342L.263,1.279A.705.705,0,0,1,.176.263.705.705,0,0,1,1.192.176L5.662,3.862,10.16.176a.729.729,0,0,1,1.016.087.729.729,0,0,1-.087,1.016L6.155,5.342A.925.925,0,0,1,5.662,5.516Z" transform="translate(0 11.343) rotate(-90)" fill="#444"/>
  </g>
</svg>
