<svg xmlns="http://www.w3.org/2000/svg" width="22.26" height="21.013" viewBox="0 0 22.26 21.013">
  <g id="Grupo_3380" data-name="Grupo 3380" transform="translate(-201.706 -471.161)">
    <path id="Caminho_14572" data-name="Caminho 14572" d="M204.919,476.1c-.271,0-.548-.01-.814-.031a.411.411,0,0,1,.062-.82q.377.031.753.031a.41.41,0,0,1,0,.82Z" transform="translate(7.293 15.823)" fill="#fff" stroke="#fff" stroke-width="0.5"/>
    <path id="Caminho_14573" data-name="Caminho 14573" d="M205.374,476.478l-.077-.01a10.23,10.23,0,0,1-1.9-.569.41.41,0,0,1,.312-.758,9.351,9.351,0,0,0,1.742.523.411.411,0,0,1-.082.814Z" transform="translate(4.923 15.261)" fill="#fff" stroke="#fff" stroke-width="0.5"/>
    <path id="Caminho_14574" data-name="Caminho 14574" d="M207.427,490.684a.382.382,0,0,1-.195-.051,10.257,10.257,0,1,1,14.647-12.4l1.347-.236a.4.4,0,0,1,.4.169.4.4,0,0,1,.015.441l-2.264,3.868a.4.4,0,0,1-.261.189.409.409,0,0,1-.318-.056l-3.683-2.454a.417.417,0,0,1-.179-.389.409.409,0,0,1,.266-.333l1.44-.523a7,7,0,1,0-1.194,7.382.408.408,0,0,1,.615.538,7.811,7.811,0,1,1,1.5-7.818.411.411,0,0,1-.246.523l-1.076.389,2.649,1.762,1.6-2.731-.82.144a.415.415,0,0,1-.466-.277,9.437,9.437,0,1,0-13.581,11.1.407.407,0,0,1-.2.763Z" transform="translate(0 0)" fill="#fff" stroke="#fff" stroke-width="0.5"/>
    <path id="Caminho_14575" data-name="Caminho 14575" d="M208.1,481.2a.412.412,0,0,1-.287-.118L204,477.268a.42.42,0,0,1-.123-.292v-4.021a.41.41,0,1,1,.82,0v3.852l3.694,3.694a.411.411,0,0,1,0,.579A.424.424,0,0,1,208.1,481.2Z" transform="translate(7.924 4.676)" fill="#fff" stroke="#fff" stroke-width="0.5"/>
  </g>
</svg>
