<svg xmlns="http://www.w3.org/2000/svg" width="49.428" height="47.044" viewBox="0 0 49.428 47.044">
  <g id="Agrupar_4516" data-name="Agrupar 4516" transform="translate(0.572 0.5)">
    <g id="Agrupar_2760" data-name="Agrupar 2760">
      <g id="Agrupar_2759" data-name="Agrupar 2759">
        <g id="Agrupar_2758" data-name="Agrupar 2758">
          <g id="Agrupar_2757" data-name="Agrupar 2757">
            <path id="Caminho_7874" data-name="Caminho 7874" d="M77.618,331.714a.745.745,0,0,1-.528-.226l-19.26-19.251L38.578,331.488a.757.757,0,0,1-1.065,0l-3.639-3.639a.757.757,0,0,1,0-1.065L53.568,307.09l.085-.1,3.639-3.63a.757.757,0,0,1,.537-.226l.189.028a.716.716,0,0,1,.358.2l3.639,3.63.085.113,19.694,19.685a.763.763,0,0,1,.217.538.741.741,0,0,1-.217.528l-3.639,3.639A.75.75,0,0,1,77.618,331.714Zm-19.788-21.3a.74.74,0,0,1,.537.216l19.251,19.26,2.574-2.573L60.94,308.061l-.094-.1-3.017-3.017-3.017,3.017-.085.1-19.251,19.26,2.564,2.573,19.26-19.26A.734.734,0,0,1,57.829,310.418Z" transform="translate(-33.655 -303.13)" fill="#00604e" stroke="#444" stroke-width="1"/>
            <path id="Caminho_7875" data-name="Caminho 7875" d="M34.978,326.521a.756.756,0,0,1-.754-.754V306.572a.754.754,0,1,1,1.508,0v19.194A.756.756,0,0,1,34.978,326.521Z" transform="translate(-28.857 -280.477)" fill="#00604e" stroke="#444" stroke-width="1"/>
            <path id="Caminho_7876" data-name="Caminho 7876" d="M38.809,326.521a.756.756,0,0,1-.754-.754V306.572a.754.754,0,1,1,1.508,0v19.194A.756.756,0,0,1,38.809,326.521Z" transform="translate(3.428 -280.477)" fill="#00604e" stroke="#444" stroke-width="1"/>
          </g>
          <path id="Caminho_7877" data-name="Caminho 7877" d="M77.38,309.362H34.626a.754.754,0,0,1,0-1.508H77.38a.754.754,0,0,1,0,1.508Z" transform="translate(-31.824 -263.318)" fill="#00604e" stroke="#444" stroke-width="1"/>
        </g>
      </g>
    </g>
    <g id="Agrupar_2761" data-name="Agrupar 2761" transform="translate(19.367 23.578)">
      <path id="Caminho_7878" data-name="Caminho 7878" d="M44.328,315.68H35.787a.748.748,0,0,1-.745-.754v-8.541a.748.748,0,0,1,.745-.754h8.541a.75.75,0,0,1,.754.754v8.541A.75.75,0,0,1,44.328,315.68Zm-7.787-1.508h7.042v-7.033H36.541Z" transform="translate(-35.042 -305.631)" fill="#00604e" stroke="#444" stroke-width="1"/>
    </g>
  </g>
</svg>
