<svg xmlns="http://www.w3.org/2000/svg" width="19.524" height="19.325" viewBox="0 0 19.524 19.325">
  <g id="Grupo_5522" data-name="Grupo 5522" transform="translate(-8.824 -7)">
    <path id="Caminho_15399" data-name="Caminho 15399" d="M25.992,30.9a8.873,8.873,0,1,1,8.873-8.873,8.976,8.976,0,0,1-.056.985.507.507,0,0,1-.5.451H22.767A3.21,3.21,0,0,0,28.5,24.688a.53.53,0,0,1,.431-.185h4.9a.47.47,0,0,1,.407.2.506.506,0,0,1,.057.467A8.919,8.919,0,0,1,25.992,30.9Zm0-16.731A7.859,7.859,0,1,0,33.045,25.5H29.151a4.223,4.223,0,0,1-7.464-2.512.507.507,0,0,1,.14-.373.428.428,0,0,1,.339-.134H33.827c.008-.143.023-.306.023-.445A7.867,7.867,0,0,0,25.992,14.172Zm3.629,7.267H22.193a.507.507,0,0,1-.507-.53,4.225,4.225,0,0,1,8.441,0,.507.507,0,0,1-.507.53Zm-6.948-.992H29.1a3.277,3.277,0,0,0-3.188-2.558A3.329,3.329,0,0,0,22.673,20.448Z" transform="translate(-6.666 -4.912)" fill="#4ed5a1" stroke="#4ed5a1" stroke-width="0.3"/>
    <path id="Caminho_15400" data-name="Caminho 15400" d="M12.6,26.175a3.594,3.594,0,0,1-2.637-.967c-2.294-2.294-.342-7.841,4.445-12.628S24.738,5.84,27.032,8.134c1.077,1.077,1.255,2.913.5,5.172a.509.509,0,1,1-.965-.322c.625-1.874.534-3.34-.256-4.13-1.828-1.827-6.952.208-11.189,4.445S8.851,22.66,10.679,24.488c.894.894,2.67.886,4.873-.021a.509.509,0,1,1,.388.941A8.962,8.962,0,0,1,12.6,26.175Z" transform="translate(0)" fill="#4ed5a1" stroke="#4ed5a1" stroke-width="0.3"/>
  </g>
</svg>
