<svg xmlns="http://www.w3.org/2000/svg" width="25" height="17.326" viewBox="0 0 25 17.326">
  <g id="Grupo_5529" data-name="Grupo 5529" transform="translate(-276.417 -295.169)">
    <path id="Caminho_8672" data-name="Caminho 8672" d="M292.966,306.248H278.8a1.413,1.413,0,0,1-1.415-1.411v-7.651a1.413,1.413,0,0,1,1.415-1.411h14.164a1.416,1.416,0,0,1,1.415,1.411v7.651A1.416,1.416,0,0,1,292.966,306.248ZM278.8,296.484a.7.7,0,0,0-.708.7v7.651a.707.707,0,0,0,.708.707h14.164a.71.71,0,0,0,.708-.707v-7.651a.706.706,0,0,0-.708-.7Z" transform="translate(2.796 1.564)" fill="#4ed5a1" stroke="#4ed5a1" stroke-width="0.3"/>
    <path id="Caminho_8673" data-name="Caminho 8673" d="M291.914,310.222h-8.407a.322.322,0,0,1-.133-.026l-.889-.358h-4.126a1.461,1.461,0,0,1-1.459-1.459v-11.6a1.46,1.46,0,0,1,1.459-1.455h18.374a1.46,1.46,0,0,1,1.459,1.455v11.6a1.461,1.461,0,0,1-1.459,1.459h-3.8l-.889.358A.323.323,0,0,1,291.914,310.222Zm-8.34-.708h8.274l.884-.358a.337.337,0,0,1,.133-.027h3.869a.751.751,0,0,0,.752-.752v-11.6a.754.754,0,0,0-.752-.752H278.359a.754.754,0,0,0-.752.752v11.6a.751.751,0,0,0,.752.752h4.2a.338.338,0,0,1,.133.027Z" transform="translate(1.133 0)" fill="#4ed5a1" stroke="#4ed5a1" stroke-width="0.3"/>
    <path id="Caminho_8674" data-name="Caminho 8674" d="M300.158,301.65H277.675a.35.35,0,0,1-.336-.252l-.756-2.5a.354.354,0,0,1,.057-.31.348.348,0,0,1,.283-.146h6.784a.354.354,0,0,1,0,.708H277.4l.544,1.791H299.9l.54-1.791H293.98a.354.354,0,1,1,0-.708h6.934a.354.354,0,0,1,.336.456l-.752,2.5A.352.352,0,0,1,300.158,301.65Z" transform="translate(0 10.695)" fill="#4ed5a1" stroke="#4ed5a1" stroke-width="0.3"/>
  </g>
</svg>
