<svg xmlns="http://www.w3.org/2000/svg" width="42" height="31.768" viewBox="0 0 42 31.768">
  <g id="Grupo_4708" data-name="Grupo 4708" transform="translate(-175.616 -294.341)">
    <path id="Caminho_8248" data-name="Caminho 8248" d="M216.551,325.609H176.681a.561.561,0,0,1-.565-.558V295.406a.567.567,0,0,1,.565-.565h39.869a.567.567,0,0,1,.565.565V325.05A.561.561,0,0,1,216.551,325.609Zm-39.3-1.124h38.739V295.972H177.247Z" transform="translate(0 0)" stroke="#00604e" stroke-width="1"/>
    <path id="Caminho_8249" data-name="Caminho 8249" d="M211.3,320.368H177.081a.567.567,0,0,1-.565-.565v-24a.567.567,0,0,1,.565-.565H211.3a.567.567,0,0,1,.565.565v24A.567.567,0,0,1,211.3,320.368Zm-33.651-1.131h33.086V296.371H177.647Z" transform="translate(2.427 2.421)" stroke="#00604e" stroke-width="1"/>
    <path id="Caminho_8250" data-name="Caminho 8250" d="M199.4,309.831a.565.565,0,0,1-.424-.19L189.122,298.4l-9.653,11.017a.568.568,0,0,1-.855-.749l10.084-11.5a.544.544,0,0,1,.424-.191h0a.569.569,0,0,1,.431.191l10.275,11.723a.568.568,0,0,1-.05.8A.574.574,0,0,1,199.4,309.831Z" transform="translate(14.32 12.958)" stroke="#00604e" stroke-width="1"/>
    <path id="Caminho_8251" data-name="Caminho 8251" d="M195.844,308.438a.565.565,0,0,1-.424-.191l-9.285-10.593-8.621,9.837a.568.568,0,0,1-.8.049.553.553,0,0,1-.049-.791l9.045-10.324a.577.577,0,0,1,.848,0l9.709,11.081a.56.56,0,0,1-.049.791A.54.54,0,0,1,195.844,308.438Z" transform="translate(2.461 8.486)" stroke="#00604e" stroke-width="1"/>
    <path id="Caminho_8252" data-name="Caminho 8252" d="M182.724,301.027a2.54,2.54,0,1,1,2.537-2.537A2.546,2.546,0,0,1,182.724,301.027Zm0-3.95a1.41,1.41,0,1,0,1.406,1.413A1.418,1.418,0,0,0,182.724,297.076Z" transform="translate(24.654 6.704)" stroke="#00604e" stroke-width="1"/>
  </g>
</svg>
