<svg xmlns="http://www.w3.org/2000/svg" width="32.07" height="32.07" viewBox="0 0 32.07 32.07">
  <g id="Grupo_5551" data-name="Grupo 5551" transform="translate(0 0)">
    <g id="button_alternate_icon_label_medium" data-name="button / alternate, icon, label/medium">
      <rect id="box" width="32.07" height="32.07" rx="16.035" fill="#00604e"/>
    </g>
    <g id="Grupo_5550" data-name="Grupo 5550" transform="translate(8.017 8.017)">
      <g id="Grupo_3812" data-name="Grupo 3812" transform="translate(6.49 2.087)">
        <path id="Caminho_10688" data-name="Caminho 10688" d="M181.087,371.845H178.6a.258.258,0,0,1-.262-.258v-7.746a.26.26,0,0,1,.262-.262h2.486a.262.262,0,0,1,.262.262v7.746A.26.26,0,0,1,181.087,371.845Zm-2.228-.52h1.966V364.1h-1.966Z" transform="translate(-178.339 -360.03)" fill="#fff" stroke="#fff" stroke-width="0.5"/>
        <path id="Caminho_10689" data-name="Caminho 10689" d="M179.844,365.5a1.5,1.5,0,1,1,1.5-1.5A1.507,1.507,0,0,1,179.844,365.5Zm0-2.486a.981.981,0,1,0,.981.981A.983.983,0,0,0,179.844,363.017Z" transform="translate(-178.339 -362.494)" fill="#fff" stroke="#fff" stroke-width="0.5"/>
      </g>
      <path id="Caminho_10690" data-name="Caminho 10690" d="M184.35,377.846a7.995,7.995,0,1,1,7.992-7.995A8,8,0,0,1,184.35,377.846Zm0-15.466a7.472,7.472,0,1,0,7.471,7.472A7.48,7.48,0,0,0,184.35,362.379Z" transform="translate(-176.355 -361.856)" fill="#fff" stroke="#fff" stroke-width="0.5"/>
    </g>
  </g>
</svg>
