<svg xmlns="http://www.w3.org/2000/svg" width="15.136" height="17.706" viewBox="0 0 15.136 17.706">
  <g id="Grupo_5547" data-name="Grupo 5547" transform="translate(-153.513 -126.219)">
    <path id="Caminho_15428" data-name="Caminho 15428" d="M256.03,126.362a3.664,3.664,0,0,0-2.538,1.917A4.99,4.99,0,0,0,253,130.2v.326l.288-.045a4.87,4.87,0,0,0,2-.841,4.561,4.561,0,0,0,1.47-2.932C256.818,126.119,256.864,126.142,256.03,126.362Z" transform="translate(-91.95)" fill="#4ed5a1"/>
    <path id="Caminho_15429" data-name="Caminho 15429" d="M157.224,181.068a3.1,3.1,0,0,0-.72.273,5.24,5.24,0,0,0-2.849,3.371,9.483,9.483,0,0,0-.008,3.243,12.746,12.746,0,0,0,1.7,4.1,11.227,11.227,0,0,0,2.136,2.243,1.252,1.252,0,0,0,.947.227,1.418,1.418,0,0,0,1.046-.273,3.353,3.353,0,0,1,1.917-.553,4.317,4.317,0,0,1,2.106.576,1.486,1.486,0,0,0,1.03.273,1.446,1.446,0,0,0,.962-.417,9.287,9.287,0,0,0,2.841-3.644l.318-.72-.22-.159a6.382,6.382,0,0,1-2.061-2.318,2.125,2.125,0,0,1-.2-1.136,2.07,2.07,0,0,1,.235-1.235,5.915,5.915,0,0,1,1.364-1.8l.432-.4-.5-.47a4.649,4.649,0,0,0-3.076-1.25,10.04,10.04,0,0,0-2.644.568l-.75.258-.818-.265A7.743,7.743,0,0,0,157.224,181.068Z" transform="translate(0 -50.63)" fill="#4ed5a1"/>
  </g>
</svg>
