<svg xmlns="http://www.w3.org/2000/svg" width="15.508" height="15.509" viewBox="0 0 15.508 15.509">
  <g id="iconfinder_pin2_1622294" transform="translate(0)">
    <path id="Caminho_14587" data-name="Caminho 14587" d="M19.018,15.684a.456.456,0,0,1-.351-.164C18.477,15.292,14,9.887,14,7.018a5.018,5.018,0,1,1,10.035,0c0,2.869-4.477,8.274-4.666,8.5A.456.456,0,0,1,19.018,15.684Zm0-12.772a4.105,4.105,0,0,0-4.105,4.105c0,1.932,2.7,5.722,4.105,7.488,1.4-1.765,4.105-5.556,4.105-7.488A4.105,4.105,0,0,0,19.018,2.912Z" transform="translate(-11.263 -2)" fill="#fff"/>
    <path id="Caminho_14588" data-name="Caminho 14588" d="M28.281,18.561a2.281,2.281,0,1,1,2.281-2.281A2.281,2.281,0,0,1,28.281,18.561Zm0-3.649a1.368,1.368,0,1,0,1.368,1.368A1.368,1.368,0,0,0,28.281,14.912Z" transform="translate(-20.527 -11.263)" fill="#fff"/>
    <path id="Caminho_14589" data-name="Caminho 14589" d="M17.053,54.561H2.457a.456.456,0,0,1-.408-.659l1.825-3.649A.456.456,0,0,1,4.282,50H6.106a.456.456,0,0,1,0,.912H4.564L3.2,53.649H16.314l-1.368-2.737H13.4a.456.456,0,0,1,0-.912h1.825a.456.456,0,0,1,.408.253L17.462,53.9a.456.456,0,0,1-.408.659Z" transform="translate(-2.001 -39.053)" fill="#fff"/>
  </g>
</svg>
