<svg xmlns="http://www.w3.org/2000/svg" width="10.711" height="18.504" viewBox="0 0 10.711 18.504">
  <g id="Grupo_5528" data-name="Grupo 5528" transform="translate(-285.939 -302.728)">
    <g id="Grupo_3130" data-name="Grupo 3130" transform="translate(286.089 302.878)">
      <path id="Caminho_8765" data-name="Caminho 8765" d="M295.254,321.082h-7.919a1.247,1.247,0,0,1-1.246-1.246V304.124a1.249,1.249,0,0,1,1.246-1.246h7.919a1.249,1.249,0,0,1,1.246,1.246v15.712A1.247,1.247,0,0,1,295.254,321.082Zm-7.919-17.677a.72.72,0,0,0-.719.719v15.712a.721.721,0,0,0,.719.722h7.919a.721.721,0,0,0,.719-.722V304.124a.72.72,0,0,0-.719-.719Z" transform="translate(-286.089 -302.878)" fill="#4ed5a1" stroke="#4ed5a1" stroke-width="0.3"/>
      <path id="Caminho_8766" data-name="Caminho 8766" d="M296.236,317.939h-9.883a.262.262,0,0,1-.264-.264V303.7a.265.265,0,0,1,.264-.264h9.883a.265.265,0,0,1,.264.264v13.971A.262.262,0,0,1,296.236,317.939Zm-9.62-.527h9.356V303.967h-9.356Z" transform="translate(-286.089 -301.587)" fill="#4ed5a1" stroke="#4ed5a1" stroke-width="0.3"/>
      <path id="Caminho_8767" data-name="Caminho 8767" d="M288.322,303.676h-.557a.264.264,0,0,1,0-.527h.557a.264.264,0,0,1,0,.527Z" transform="translate(-282.839 -302.256)" fill="#4ed5a1" stroke="#4ed5a1" stroke-width="0.3"/>
      <path id="Caminho_8768" data-name="Caminho 8768" d="M289.362,308.486h-1.783a.264.264,0,0,1,0-.527h1.783a.264.264,0,1,1,0,.527Z" transform="translate(-283.266 -291.208)" fill="#4ed5a1" stroke="#4ed5a1" stroke-width="0.3"/>
    </g>
  </g>
</svg>
