<svg xmlns="http://www.w3.org/2000/svg" width="21.904" height="18.904" viewBox="0 0 21.904 18.904">
  <g id="Agrupar_59" data-name="Agrupar 59" transform="translate(-505 -1084.115)">
    <path id="Caminho_3052" data-name="Caminho 3052" d="M508.123,1102.719l.294.3h15.07l.295-.3a10.952,10.952,0,1,0-15.659,0Zm7.829-16.6a8.947,8.947,0,0,1,6.68,14.9h-13.36a8.947,8.947,0,0,1,6.68-14.9Z" fill="#00604e"/>
    <path id="Caminho_3053" data-name="Caminho 3053" d="M516,1100.019a1.971,1.971,0,0,0,1.9-2.579l3.162-3.4-1.466-1.362-3.157,3.4a2.028,2.028,0,0,0-.443-.054,2,2,0,0,0,0,4Z" fill="#00604e"/>
    <path id="Caminho_3054" data-name="Caminho 3054" d="M516,1089.019a.989.989,0,1,0-.71-.289A1.05,1.05,0,0,0,516,1089.019Z" fill="#00604e"/>
    <path id="Caminho_3055" data-name="Caminho 3055" d="M512.5,1089.96a1.033,1.033,0,0,0,.71-.29,1,1,0,0,0-1.42-1.42,1.032,1.032,0,0,0-.29.71,1.007,1.007,0,0,0,1,1Z" fill="#00604e"/>
    <path id="Caminho_3056" data-name="Caminho 3056" d="M509.94,1092.519a1.006,1.006,0,0,0,1-1,1,1,0,1,0-1,1Z" fill="#00604e"/>
    <path id="Caminho_3057" data-name="Caminho 3057" d="M508.29,1095.73a1.05,1.05,0,0,0,.71.289,1.032,1.032,0,0,0,.71-.289,1,1,0,1,0-1.42,0Z" fill="#00604e"/>
    <path id="Caminho_3058" data-name="Caminho 3058" d="M509.23,1097.81a1,1,0,1,0,1.42,0A1.051,1.051,0,0,0,509.23,1097.81Z" fill="#00604e"/>
    <path id="Caminho_3059" data-name="Caminho 3059" d="M521.36,1097.81a.981.981,0,0,0-.3.709.989.989,0,0,0,1,1,1.016,1.016,0,0,0,.71-.3.967.967,0,0,0,.29-.7,1.051,1.051,0,0,0-.29-.709A1.034,1.034,0,0,0,521.36,1097.81Z" fill="#00604e"/>
    <path id="Caminho_3060" data-name="Caminho 3060" d="M522.29,1094.31a1.014,1.014,0,0,0,0,1.42,1.032,1.032,0,0,0,.71.289,1.006,1.006,0,0,0,1-1,1,1,0,0,0-1.71-.709Z" fill="#00604e"/>
    <path id="Caminho_3061" data-name="Caminho 3061" d="M522.06,1092.519a1.05,1.05,0,0,0,.71-.289,1.014,1.014,0,0,0,0-1.42,1,1,0,1,0-.71,1.709Z" fill="#00604e"/>
    <path id="Caminho_3062" data-name="Caminho 3062" d="M519.5,1089.96a1.007,1.007,0,0,0,1-1,1.032,1.032,0,0,0-.29-.71,1.049,1.049,0,0,0-1.42,0,1.014,1.014,0,0,0,0,1.42A1.052,1.052,0,0,0,519.5,1089.96Z" fill="#00604e"/>
  </g>
</svg>
