<svg xmlns="http://www.w3.org/2000/svg" width="17.291" height="23.989" viewBox="0 0 17.291 23.989">
  <g id="Grupo_5491" data-name="Grupo 5491" transform="translate(-369.103 -495.27)">
    <path id="Caminho_15387" data-name="Caminho 15387" d="M385.828,519.009h-16.16a.316.316,0,0,1-.315-.315V495.835a.316.316,0,0,1,.315-.316h16.16a.317.317,0,0,1,.315.316v22.858A.316.316,0,0,1,385.828,519.009Zm-15.845-.631h15.529V496.151H369.984Z" transform="translate(0 0)" fill="#757575" stroke="#757575" stroke-width="0.5"/>
    <g id="Grupo_5426" data-name="Grupo 5426" transform="translate(371.801 499.861)">
      <path id="Caminho_15388" data-name="Caminho 15388" d="M378.207,497.252h-6.781a.315.315,0,1,1,0-.631h6.781a.315.315,0,0,1,0,.631Z" transform="translate(-366.628 -496.621)" fill="#757575" stroke="#757575" stroke-width="0.5"/>
      <path id="Caminho_15389" data-name="Caminho 15389" d="M381.553,497.971H370.289a.315.315,0,0,1,0-.631h11.264a.315.315,0,0,1,0,.631Z" transform="translate(-369.974 -494.505)" fill="#757575" stroke="#757575" stroke-width="0.5"/>
      <path id="Caminho_15390" data-name="Caminho 15390" d="M381.553,498.69H370.289a.315.315,0,0,1,0-.631h11.264a.315.315,0,0,1,0,.631Z" transform="translate(-369.974 -492.39)" fill="#757575" stroke="#757575" stroke-width="0.5"/>
      <path id="Caminho_15391" data-name="Caminho 15391" d="M381.553,499.41H370.289a.315.315,0,0,1,0-.631h11.264a.315.315,0,0,1,0,.631Z" transform="translate(-369.974 -490.271)" fill="#757575" stroke="#757575" stroke-width="0.5"/>
      <path id="Caminho_15392" data-name="Caminho 15392" d="M381.553,500.129H370.289a.315.315,0,0,1,0-.631h11.264a.315.315,0,0,1,0,.631Z" transform="translate(-369.974 -488.156)" fill="#757575" stroke="#757575" stroke-width="0.5"/>
      <path id="Caminho_15393" data-name="Caminho 15393" d="M381.553,500.848H370.289a.315.315,0,0,1,0-.631h11.264a.315.315,0,0,1,0,.631Z" transform="translate(-369.974 -486.04)" fill="#757575" stroke="#757575" stroke-width="0.5"/>
    </g>
  </g>
</svg>
