<svg xmlns="http://www.w3.org/2000/svg" width="20.097" height="21.667" viewBox="0 0 20.097 21.667">
  <g id="Agrupar_3446" data-name="Agrupar 3446" transform="translate(-226.62 -353.553)">
    <path id="Caminho_10981" data-name="Caminho 10981" d="M233.641,365.575a5.761,5.761,0,1,1,5.761-5.761A5.77,5.77,0,0,1,233.641,365.575Zm0-10.725a4.964,4.964,0,1,0,4.964,4.964A4.971,4.971,0,0,0,233.641,354.85Z" transform="translate(3.028 0)" fill="#444" stroke="#444" stroke-width="1"/>
    <path id="Caminho_10982" data-name="Caminho 10982" d="M245.819,366.148a.394.394,0,0,1-.4-.4,8.751,8.751,0,0,0-17.5,0,.4.4,0,1,1-.8,0,9.549,9.549,0,0,1,19.1,0A.4.4,0,0,1,245.819,366.148Z" transform="translate(0 8.573)" fill="#444" stroke="#444" stroke-width="1"/>
  </g>
</svg>
