<svg xmlns="http://www.w3.org/2000/svg" width="20" height="20" viewBox="0 0 20 20">
  <g id="Agrupar_58" data-name="Agrupar 58" transform="translate(-1514.001 -605)">
    <path id="Caminho_3050" data-name="Caminho 3050" d="M1534,623a7.008,7.008,0,0,0-7-7h-6a7.008,7.008,0,0,0-7,7v2h20Zm-18,0a5.006,5.006,0,0,1,5-5h6a5.006,5.006,0,0,1,5,5Z" fill="#00604e"/>
    <path id="Caminho_3051" data-name="Caminho 3051" d="M1529,610a5,5,0,1,0-5,5A5.006,5.006,0,0,0,1529,610Zm-8,0a3,3,0,1,1,3,3A3,3,0,0,1,1521,610Z" fill="#00604e"/>
  </g>
</svg>
