<svg xmlns="http://www.w3.org/2000/svg" width="18.587" height="18.587" viewBox="0 0 18.587 18.587">
  <g id="Grupo_5500" data-name="Grupo 5500" transform="translate(-4.65 -4.864)">
    <path id="Caminho_15397" data-name="Caminho 15397" d="M13.943,5.214a8.943,8.943,0,1,0,8.943,8.943,8.943,8.943,0,0,0-8.943-8.943m0,17.345a8.4,8.4,0,1,1,8.4-8.4,8.411,8.411,0,0,1-8.4,8.4" transform="translate(0 0)" fill="#4ed5a1" stroke="#4ed5a1" stroke-width="0.7"/>
    <rect id="Retângulo_51" data-name="Retângulo 51" width="0.542" height="1.084" transform="translate(13.673 20.391)" fill="#4ed5a1" stroke="#4ed5a1" stroke-width="0.7"/>
    <rect id="Retângulo_52" data-name="Retângulo 52" width="0.542" height="1.084" transform="translate(13.673 6.84)" fill="#4ed5a1" stroke="#4ed5a1" stroke-width="0.7"/>
    <rect id="Retângulo_53" data-name="Retângulo 53" width="1.084" height="0.542" transform="translate(20.177 13.887)" fill="#4ed5a1" stroke="#4ed5a1" stroke-width="0.7"/>
    <rect id="Retângulo_54" data-name="Retângulo 54" width="1.084" height="0.542" transform="translate(6.626 13.887)" fill="#4ed5a1" stroke="#4ed5a1" stroke-width="0.7"/>
    <rect id="Retângulo_55" data-name="Retângulo 55" width="0.542" height="1.084" transform="translate(18.16 18.757) rotate(-44.984)" fill="#4ed5a1" stroke="#4ed5a1" stroke-width="0.7"/>
    <rect id="Retângulo_56" data-name="Retângulo 56" width="0.542" height="1.084" transform="translate(8.578 9.175) rotate(-45.024)" fill="#4ed5a1" stroke="#4ed5a1" stroke-width="0.7"/>
    <rect id="Retângulo_57" data-name="Retângulo 57" width="0.542" height="1.084" transform="matrix(0.927, -0.374, 0.374, 0.927, 16.027, 20.04)" fill="#4ed5a1" stroke="#4ed5a1" stroke-width="0.7"/>
    <rect id="Retângulo_58" data-name="Retângulo 58" width="0.542" height="1.084" transform="matrix(0.927, -0.375, 0.375, 0.927, 10.951, 7.475)" fill="#4ed5a1" stroke="#4ed5a1" stroke-width="0.7"/>
    <rect id="Retângulo_59" data-name="Retângulo 59" width="1.084" height="0.542" transform="translate(19.622 11.57) rotate(-21.994)" fill="#4ed5a1" stroke="#4ed5a1" stroke-width="0.7"/>
    <rect id="Retângulo_60" data-name="Retângulo 60" width="1.084" height="0.542" transform="translate(7.057 16.648) rotate(-21.999)" fill="#4ed5a1" stroke="#4ed5a1" stroke-width="0.7"/>
    <rect id="Retângulo_61" data-name="Retângulo 61" width="0.542" height="1.084" transform="translate(19.574 16.843) rotate(-66.996)" fill="#4ed5a1" stroke="#4ed5a1" stroke-width="0.7"/>
    <rect id="Retângulo_62" data-name="Retângulo 62" width="0.542" height="1.084" transform="translate(7.102 11.548) rotate(-67.02)" fill="#4ed5a1" stroke="#4ed5a1" stroke-width="0.7"/>
    <rect id="Retângulo_63" data-name="Retângulo 63" width="1.084" height="0.542" transform="translate(16.129 8.314) rotate(-67.032)" fill="#4ed5a1" stroke="#4ed5a1" stroke-width="0.7"/>
    <rect id="Retângulo_64" data-name="Retângulo 64" width="1.083" height="0.542" transform="translate(10.835 20.788) rotate(-67.007)" fill="#4ed5a1" stroke="#4ed5a1" stroke-width="0.7"/>
    <path id="Caminho_15398" data-name="Caminho 15398" d="M26.457,26.272l-4.59,6.651a.034.034,0,0,0,.047.047l6.651-4.59,4.59-6.651a.034.034,0,0,0-.047-.047Zm-2.569,4.678,2.9-4.243,1.33,1.33Z" transform="translate(-13.51 -13.19)" fill="#4ed5a1" stroke="#4ed5a1" stroke-width="0.7"/>
  </g>
</svg>
