<svg xmlns="http://www.w3.org/2000/svg" width="14.291" height="18.287" viewBox="0 0 14.291 18.287">
  <g id="Grupo_3124" data-name="Grupo 3124" transform="translate(-294.182 -294.479)">
    <path id="Caminho_8753" data-name="Caminho 8753" d="M305.87,312.666h-9.086a2.3,2.3,0,0,1-2.5-2.01V296.585a2.3,2.3,0,0,1,2.5-2.006h9.086a2.3,2.3,0,0,1,2.5,2.006v14.071A2.3,2.3,0,0,1,305.87,312.666Zm-9.086-17.555a1.689,1.689,0,0,0-1.84,1.475v14.071a1.691,1.691,0,0,0,1.84,1.478h9.086a1.691,1.691,0,0,0,1.84-1.478V296.585a1.689,1.689,0,0,0-1.84-1.475Z" transform="translate(0 0)" fill="#4ed5a1" stroke="#4ed5a1" stroke-width="0.2"/>
    <path id="Caminho_8754" data-name="Caminho 8754" d="M304.826,309.022h-8.8a1.229,1.229,0,0,1-1.351-1.048V296.019a1.229,1.229,0,0,1,1.351-1.048h8.8a1.229,1.229,0,0,1,1.351,1.048v11.956A1.229,1.229,0,0,1,304.826,309.022Zm-8.8-13.507a.589.589,0,0,0-.649.5v11.956a.589.589,0,0,0,.649.5h8.8a.589.589,0,0,0,.649-.5V296.019a.589.589,0,0,0-.649-.5Z" transform="translate(0.903 0.91)" fill="#4ed5a1" stroke="#4ed5a1" stroke-width="0.1"/>
    <path id="Caminho_8755" data-name="Caminho 8755" d="M297.576,299.929h-1.658a.266.266,0,0,1,0-.532h1.658a.266.266,0,1,1,0,.532Z" transform="translate(4.58 11.186)" fill="#4ed5a1" stroke="#4ed5a1" stroke-width="0.2"/>
  </g>
</svg>
