<svg xmlns="http://www.w3.org/2000/svg" width="18.71" height="18.03" viewBox="0 0 18.71 18.03">
  <g id="iconfinder_Data_Science_wolrd-39_3809210" transform="translate(-68.742 -75.732)">
    <g id="Grupo_70" data-name="Grupo 70" transform="translate(68.992 75.982)">
      <path id="Caminho_3074" data-name="Caminho 3074" d="M86.716,93.512H69.479a.487.487,0,0,1-.487-.487V76.469a.487.487,0,0,1,.487-.487H82.085a.487.487,0,0,1,.285.092L87,79.415a.487.487,0,0,1,.2.395V93.025A.487.487,0,0,1,86.716,93.512Zm-16.75-.974H86.229V80.059l-4.3-3.1H69.966Z" transform="translate(-68.992 -75.982)" fill="#fff" stroke="#fff" stroke-width="0.5"/>
    </g>
    <g id="Grupo_71" data-name="Grupo 71" transform="translate(72.845 75.982)">
      <path id="Caminho_3075" data-name="Caminho 3075" d="M156.094,80.083h-7.48a.487.487,0,0,1-.487-.487V76.469a.487.487,0,0,1,.487-.487h7.48a.487.487,0,0,1,.487.487V79.6A.487.487,0,0,1,156.094,80.083Zm-6.994-.974h6.507V76.956H149.1Z" transform="translate(-148.127 -75.982)" fill="#fff"/>
    </g>
    <g id="Grupo_72" data-name="Grupo 72" transform="translate(74.378 83.841)">
      <path id="Caminho_3076" data-name="Caminho 3076" d="M183.191,244.531a3.574,3.574,0,1,1,3.574-3.574A3.578,3.578,0,0,1,183.191,244.531Zm0-6.174a2.6,2.6,0,1,0,2.6,2.6A2.6,2.6,0,0,0,183.191,238.358Z" transform="translate(-179.617 -237.384)" fill="#fff"/>
    </g>
    <g id="Grupo_73" data-name="Grupo 73" transform="translate(70.907 88.708)">
      <path id="Caminho_3077" data-name="Caminho 3077" d="M108.815,339.9a.487.487,0,0,1-.487-.487v-1.577a.487.487,0,1,1,.974,0v1.577A.487.487,0,0,1,108.815,339.9Z" transform="translate(-108.328 -337.347)" fill="#fff"/>
    </g>
  </g>
</svg>
