<svg xmlns="http://www.w3.org/2000/svg" width="28.808" height="25.665" viewBox="0 0 28.808 25.665">
  <g id="Grupo_4737" data-name="Grupo 4737" transform="translate(-1517.24 -198.095)">
    <g id="Grupo_4710" data-name="Grupo 4710" transform="translate(-96)">
      <g id="Grupo_4709" data-name="Grupo 4709" transform="translate(1277.24 514.606)">
        <rect id="Retângulo_36" data-name="Retângulo 36" width="4.678" height="4.678" rx="1" transform="translate(336 -308)" fill="#fff"/>
        <rect id="Retângulo_39" data-name="Retângulo 39" width="4.678" height="4.678" rx="1" transform="translate(336 -301.762)" fill="#fff"/>
        <rect id="Retângulo_42" data-name="Retângulo 42" width="4.678" height="4.678" rx="1" transform="translate(336 -295.524)" fill="#fff"/>
        <rect id="Retângulo_40" data-name="Retângulo 40" width="4.678" height="4.678" rx="1" transform="translate(342.238 -301.762)" fill="#fff"/>
        <rect id="Retângulo_43" data-name="Retângulo 43" width="4.678" height="4.678" rx="1" transform="translate(342.238 -295.524)" fill="#fff"/>
        <rect id="Retângulo_41" data-name="Retângulo 41" width="4.678" height="4.678" rx="1" transform="translate(348.476 -301.762)" fill="#fff"/>
        <rect id="Retângulo_44" data-name="Retângulo 44" width="4.678" height="4.678" rx="1" transform="translate(348.476 -295.524)" fill="#fff"/>
        <rect id="Retângulo_37" data-name="Retângulo 37" width="4.678" height="4.678" rx="1" transform="translate(342.238 -308)" fill="#fff"/>
        <rect id="Retângulo_38" data-name="Retângulo 38" width="4.678" height="4.678" rx="1" transform="translate(348.476 -308)" fill="#fff"/>
      </g>
    </g>
    <g id="Grupo_1339" data-name="Grupo 1339" transform="translate(1543.077 211.087) rotate(180)">
      <path id="Caminho_4166" data-name="Caminho 4166" d="M231,204.7a.215.215,0,0,1-.153-.064L227.8,201.5a.214.214,0,0,1,.153-.362H229.1v-6.581a.214.214,0,0,1,.215-.215h3.375a.214.214,0,0,1,.215.215v6.581h1.143a.214.214,0,0,1,.153.362l-3.045,3.139A.215.215,0,0,1,231,204.7Zm-2.538-3.136L231,204.18l2.538-2.613h-.85a.213.213,0,0,1-.212-.215v-6.581H229.53v6.581a.215.215,0,0,1-.215.215Z" transform="translate(-227.744 -194.342)" fill="#fff" stroke="#fff" stroke-width="0.6"/>
    </g>
    <path id="Caminho_4167" data-name="Caminho 4167" d="M238.392,200.942H226.963a.215.215,0,0,1-.215-.215V198.4a.215.215,0,0,1,.429,0v2.117h11v-2.337a.215.215,0,1,1,.429,0v2.551A.215.215,0,0,1,238.392,200.942Z" transform="translate(1772.497 399.337) rotate(180)" fill="#fff" stroke="#fff" stroke-width="0.6"/>
  </g>
</svg>
