<svg xmlns="http://www.w3.org/2000/svg" width="25.806" height="23.76" viewBox="0 0 25.806 23.76">
  <g id="Grupo_4710" data-name="Grupo 4710" transform="translate(-1613.24 -200)">
    <path id="Caminho_9" data-name="Caminho 9" d="M26.25,7.58H23.743v-2.5a.912.912,0,1,0-1.823,0v2.5h-2.5a.912.912,0,0,0,0,1.823h2.5V11.91a.912.912,0,0,0,1.823,0V9.4H26.25a.912.912,0,0,0,0-1.823Z" transform="translate(1611.884 195.83)" fill="#fff"/>
    <g id="Grupo_4709" data-name="Grupo 4709" transform="translate(1277.24 514.606)">
      <rect id="Retângulo_36" data-name="Retângulo 36" width="4.678" height="4.678" rx="1" transform="translate(336 -308)" fill="#fff"/>
      <rect id="Retângulo_39" data-name="Retângulo 39" width="4.678" height="4.678" rx="1" transform="translate(336 -301.762)" fill="#fff"/>
      <rect id="Retângulo_42" data-name="Retângulo 42" width="4.678" height="4.678" rx="1" transform="translate(336 -295.524)" fill="#fff"/>
      <rect id="Retângulo_40" data-name="Retângulo 40" width="4.678" height="4.678" rx="1" transform="translate(342.238 -301.762)" fill="#fff"/>
      <rect id="Retângulo_43" data-name="Retângulo 43" width="4.678" height="4.678" rx="1" transform="translate(342.238 -295.524)" fill="#fff"/>
      <rect id="Retângulo_41" data-name="Retângulo 41" width="4.678" height="4.678" rx="1" transform="translate(348.476 -301.762)" fill="#fff"/>
      <rect id="Retângulo_44" data-name="Retângulo 44" width="4.678" height="4.678" rx="1" transform="translate(348.476 -295.524)" fill="#fff"/>
      <rect id="Retângulo_37" data-name="Retângulo 37" width="4.678" height="4.678" rx="1" transform="translate(342.238 -308)" fill="#fff"/>
      <rect id="Retângulo_38" data-name="Retângulo 38" width="4.678" height="4.678" rx="1" transform="translate(348.476 -308)" fill="#fff"/>
    </g>
  </g>
</svg>
