<svg xmlns="http://www.w3.org/2000/svg" width="17.439" height="18.26" viewBox="0 0 17.439 18.26">
  <g id="Grupo_843" data-name="Grupo 843" transform="translate(-192.697 -151.84)">
    <path id="Caminho_2989" data-name="Caminho 2989" d="M200.2,167.589h-5.632a1.624,1.624,0,0,1-1.621-1.663V154.663a1.533,1.533,0,0,1,1.621-1.547h.074a.256.256,0,1,1,0,.513h-.074a1.015,1.015,0,0,0-1.108,1.035v11.263a1.119,1.119,0,0,0,1.108,1.153H200.2a1.371,1.371,0,0,0,1.371-1.153v-4.546a.256.256,0,1,1,.513,0v4.546A1.859,1.859,0,0,1,200.2,167.589Z" transform="translate(0 2.261)" fill="#4ed5a1" stroke="#4ed5a1" stroke-width="0.5"/>
    <path id="Caminho_2990" data-name="Caminho 2990" d="M201.891,157.218h-8.624a.256.256,0,0,1,0-.513h8.624a.256.256,0,1,1,0,.513Z" transform="translate(0.141 10.169)" fill="#4ed5a1" stroke="#4ed5a1" stroke-width="0.5"/>
    <path id="Caminho_2991" data-name="Caminho 2991" d="M195.321,154.27h-2.053a.256.256,0,0,1,0-.513h2.053a.256.256,0,1,1,0,.513Z" transform="translate(0.141 3.673)" fill="#4ed5a1" stroke="#4ed5a1" stroke-width="0.5"/>
    <path id="Caminho_2992" data-name="Caminho 2992" d="M195.527,157.6h-1.233a.256.256,0,1,1,0-.513h1.233a.256.256,0,0,1,0,.513Z" transform="translate(2.402 11.017)" fill="#4ed5a1" stroke="#4ed5a1" stroke-width="0.5"/>
    <path id="Caminho_2993" data-name="Caminho 2993" d="M197.1,163.421a.236.236,0,0,1-.093-.016.261.261,0,0,1-.163-.237v-2.351h-.416a2.47,2.47,0,0,1-2.457-2.351v-4.091a2.438,2.438,0,0,1,2.457-2.284h9a2.195,2.195,0,0,1,2.2,2.284v4.091a2.257,2.257,0,0,1-2.2,2.351h-5.814l-2.319,2.524A.262.262,0,0,1,197.1,163.421ZM196.43,152.6a1.915,1.915,0,0,0-1.944,1.771v4.091a1.969,1.969,0,0,0,1.944,1.839h.673a.257.257,0,0,1,.256.256v1.948l1.951-2.121a.259.259,0,0,1,.189-.083h5.926a1.748,1.748,0,0,0,1.688-1.839v-4.091a1.693,1.693,0,0,0-1.688-1.771Z" transform="translate(2.261)" fill="#4ed5a1" stroke="#4ed5a1" stroke-width="0.5"/>
  </g>
</svg>
