<svg xmlns="http://www.w3.org/2000/svg" width="15.109" height="12.128" viewBox="0 0 15.109 12.128">
  <g id="Group_698" data-name="Group 698" transform="translate(-376.867 -102.054)">
    <path id="Path_813" data-name="Path 813" d="M391.242,112.037H377.6a.235.235,0,0,1-.234-.234v-8.162a.235.235,0,0,1,.234-.234h13.641a.235.235,0,0,1,.234.234V111.8A.235.235,0,0,1,391.242,112.037Zm-13.407-.469h13.172v-7.693H377.836Z" transform="translate(0 1.645)" stroke="#00604e" stroke-width="1"/>
    <path id="Path_814" data-name="Path 814" d="M382.723,106.308h-3.368a.233.233,0,0,1-.234-.231v-1.584a.233.233,0,0,1,.234-.231h3.368a.233.233,0,0,1,.234.231v1.584A.233.233,0,0,1,382.723,106.308Zm-3.133-.466h2.9v-1.116h-2.9Z" transform="translate(3.383 3.292)" stroke="#00604e" stroke-width="1"/>
    <path id="Path_815" data-name="Path 815" d="M385.642,105h-5.137a.233.233,0,1,1,0-.466h5.137a.233.233,0,1,1,0,.466Z" transform="translate(5.6 3.813)" stroke="#00604e" stroke-width="1"/>
    <path id="Path_816" data-name="Path 816" d="M382.738,105H377.6a.233.233,0,1,1,0-.466h5.137a.233.233,0,1,1,0,.466Z" transform="translate(0 3.813)" stroke="#00604e" stroke-width="1"/>
    <path id="Path_817" data-name="Path 817" d="M384.076,105.521a.233.233,0,0,1-.234-.234V103.02h-4.53v2.267a.234.234,0,1,1-.469,0v-2.5a.233.233,0,0,1,.234-.234h5a.231.231,0,0,1,.231.234v2.5A.233.233,0,0,1,384.076,105.521Z" transform="translate(2.846 0)" stroke="#00604e" stroke-width="1"/>
  </g>
</svg>
