<svg xmlns="http://www.w3.org/2000/svg" width="21.894" height="21.611" viewBox="0 0 21.894 21.611">
  <g id="iconfinder_new_user_3803298" transform="translate(-3.984 -4.17)">
    <path id="Path_8" data-name="Path 8" d="M20.618,24.887a8.879,8.879,0,0,0-16.555,0,.912.912,0,1,0,1.7.665,7.065,7.065,0,0,1,13.164,0,.912.912,0,0,0,.848.574,1.085,1.085,0,0,0,.337-.055.912.912,0,0,0,.511-1.185ZM12.34,17.676a4.558,4.558,0,1,0-4.558-4.558,4.558,4.558,0,0,0,4.558,4.558Zm0-7.293a2.735,2.735,0,1,1-2.735,2.735A2.735,2.735,0,0,1,12.34,10.383Z" transform="translate(0 -0.388)" fill="#fff"/>
    <path id="Path_9" data-name="Path 9" d="M26.25,7.58H23.743v-2.5a.912.912,0,1,0-1.823,0v2.5h-2.5a.912.912,0,0,0,0,1.823h2.5V11.91a.912.912,0,0,0,1.823,0V9.4H26.25a.912.912,0,0,0,0-1.823Z" transform="translate(-1.284)" fill="#fff"/>
  </g>
</svg>
