<svg xmlns="http://www.w3.org/2000/svg" width="18" height="18" viewBox="0 0 18 18">
  <g id="Group_695" data-name="Group 695" transform="translate(-1512 -554)">
    <path id="Path_3065" data-name="Path 3065" d="M1526,554a6,6,0,1,0,6,6A6.007,6.007,0,0,0,1526,554Zm0,10.5a4.5,4.5,0,1,1,4.5-4.5A4.5,4.5,0,0,1,1526,564.5Z" transform="translate(-2)" fill="none"/>
    <rect id="Rectangle_18" data-name="Rectangle 18" width="1.5" height="3" transform="translate(1523.25 559.25)" fill="none"/>
    <rect id="Rectangle_19" data-name="Rectangle 19" width="1.5" height="1.5" transform="translate(1523.25 557)" fill="none"/>
    <path id="Path_3066" data-name="Path 3066" d="M1514,567.25a2.25,2.25,0,1,0,2.25-2.25A2.253,2.253,0,0,0,1514,567.25Zm3,0a.75.75,0,1,1-.75-.75A.751.751,0,0,1,1517,567.25Z" transform="translate(-0.5 -2.75)" fill="none"/>
    <path id="Path_3067" data-name="Path 3067" d="M1513.5,574.25a.751.751,0,0,1,.75-.75h3a.751.751,0,0,1,.75.75v2.25h1.5v-2.25a2.253,2.253,0,0,0-2.25-2.25h-3a2.253,2.253,0,0,0-2.25,2.25v2.25h1.5Z" transform="translate(0 -4.5)" fill="none"/>
  </g>
</svg>
