<svg xmlns="http://www.w3.org/2000/svg" width="47.177" height="47.16" viewBox="0 0 47.177 47.16">
  <g id="WA" transform="translate(-40.212 -23.912)">
    <g id="Grupo_5706" data-name="Grupo 5706" transform="translate(40.692 24.362)">
      <g id="Grupo_5704" data-name="Grupo 5704">
        <path id="Caminho_15871" data-name="Caminho 15871" d="M41.432,70.622a.666.666,0,0,1-.525-.229.592.592,0,0,1-.144-.74L44.129,59.5a22.725,22.725,0,0,1-3.437-12.02A23.115,23.115,0,1,1,51.8,67.243l-10.149,3.28A.28.28,0,0,1,41.432,70.622ZM51.882,65.7a.568.568,0,0,1,.372.144A21.687,21.687,0,1,0,63.817,25.784h0A21.657,21.657,0,0,0,42.159,47.443v.04a21.783,21.783,0,0,0,3.365,11.563.605.605,0,0,1,.072.6c0,.072-.072.139-.144.224L42.6,68.683,51.627,65.7Z" transform="translate(-40.692 -24.362)" fill="#3c3c3c" stroke="#3c3c3c" stroke-width="0.9"/>
      </g>
      <g id="Grupo_5705" data-name="Grupo 5705" transform="translate(10.128 11.715)">
        <path id="Caminho_15872" data-name="Caminho 15872" d="M61.905,49.785a18.656,18.656,0,0,1-7.457-2.01,21.238,21.238,0,0,1-9.481-8.426,12.376,12.376,0,0,1-2.01-5.815,7.266,7.266,0,0,1,2.854-6.116,2.089,2.089,0,0,1,1.337-.444H48.49a2.143,2.143,0,0,1,1.938,1.27l2.01,4.918a2.2,2.2,0,0,1-.372,2.239L50.8,36.826a.676.676,0,0,0-.072.74c.072.072.144.3.44.673a14.721,14.721,0,0,0,5.7,4.473c.372.144.6.229.74.3a.6.6,0,0,0,.673-.229l1.041-1.566a2.08,2.08,0,0,1,2.1-.9l5.3.83a2.168,2.168,0,0,1,1.71,1.566l.3,1.342a1.9,1.9,0,0,1-.144,1.427h0a7.139,7.139,0,0,1-5.3,4.276A10.14,10.14,0,0,0,61.905,49.785ZM47.206,28.4a.6.6,0,0,0-.372.144,5.825,5.825,0,0,0-2.378,4.846,11.175,11.175,0,0,0,1.795,5.146,19.986,19.986,0,0,0,8.812,7.843,14.341,14.341,0,0,0,8.126,1.795,5.835,5.835,0,0,0,4.177-3.5.332.332,0,0,0,0-.372l-.229-1.342a.556.556,0,0,0-.529-.44l-5.3-.826a.674.674,0,0,0-.6.3l-1.041,1.57a2.165,2.165,0,0,1-2.311.9,5.913,5.913,0,0,1-.969-.372,16.576,16.576,0,0,1-6.344-5c-.3-.372-.44-.6-.6-.826a2.131,2.131,0,0,1,.3-2.468l1.265-1.427a.7.7,0,0,0,.144-.669l-2.01-4.918a.586.586,0,0,0-.6-.372Z" transform="translate(-42.949 -26.973)" fill="#3c3c3c" stroke="#3c3c3c" stroke-width="0.9"/>
      </g>
    </g>
  </g>
</svg>
