<svg xmlns="http://www.w3.org/2000/svg" width="15.509" height="15.5" viewBox="0 0 15.509 15.5">
  <g id="WA" transform="translate(-40.429 -24.112)">
    <g id="Grupo_5706" data-name="Grupo 5706" transform="translate(40.692 24.362)">
      <g id="Grupo_5704" data-name="Grupo 5704">
        <path id="Caminho_15871" data-name="Caminho 15871" d="M40.932,39.362a.216.216,0,0,1-.17-.074.192.192,0,0,1-.047-.24l1.091-3.291a7.369,7.369,0,0,1-1.114-3.9,7.5,7.5,0,1,1,3.6,6.407L41,39.33A.091.091,0,0,1,40.932,39.362Zm3.389-1.595a.184.184,0,0,1,.121.047,7.032,7.032,0,1,0,3.749-12.991h0a7.023,7.023,0,0,0-7.023,7.023v.013a7.064,7.064,0,0,0,1.091,3.749.2.2,0,0,1,.023.195c0,.023-.023.045-.047.073l-.924,2.857,2.926-.966Z" transform="translate(-40.692 -24.362)" fill="#4ed5a1" stroke="#4ed5a1" stroke-width="0.5"/>
      </g>
      <g id="Grupo_5705" data-name="Grupo 5705" transform="translate(3.284 3.799)">
        <path id="Caminho_15872" data-name="Caminho 15872" d="M49.1,34.37a6.049,6.049,0,0,1-2.418-.652A6.887,6.887,0,0,1,43.6,30.986a4.013,4.013,0,0,1-.652-1.886,2.356,2.356,0,0,1,.925-1.983.677.677,0,0,1,.434-.144h.435a.7.7,0,0,1,.629.412l.652,1.595a.713.713,0,0,1-.121.726l-.41.463a.219.219,0,0,0-.023.24c.023.023.047.1.143.218a4.773,4.773,0,0,0,1.849,1.451c.121.047.195.074.24.1a.2.2,0,0,0,.218-.074l.338-.508a.674.674,0,0,1,.679-.292l1.72.269a.7.7,0,0,1,.554.508l.1.435a.617.617,0,0,1-.047.463h0a2.315,2.315,0,0,1-1.72,1.387A3.288,3.288,0,0,0,49.1,34.37ZM44.33,27.436a.2.2,0,0,0-.121.047,1.889,1.889,0,0,0-.771,1.571,3.623,3.623,0,0,0,.582,1.669,6.481,6.481,0,0,0,2.857,2.543,4.65,4.65,0,0,0,2.635.582,1.892,1.892,0,0,0,1.355-1.136.108.108,0,0,0,0-.121l-.074-.435a.18.18,0,0,0-.172-.143l-1.72-.268a.219.219,0,0,0-.194.1l-.338.509a.7.7,0,0,1-.749.291,1.917,1.917,0,0,1-.314-.121A5.375,5.375,0,0,1,45.249,30.9c-.1-.121-.143-.194-.194-.268a.691.691,0,0,1,.1-.8l.41-.463a.226.226,0,0,0,.047-.217l-.652-1.595a.19.19,0,0,0-.194-.121Z" transform="translate(-42.949 -26.973)" fill="#4ed5a1" stroke="#4ed5a1" stroke-width="0.5"/>
      </g>
    </g>
  </g>
</svg>
