<svg xmlns="http://www.w3.org/2000/svg" width="14.801" height="19.787" viewBox="0 0 14.801 19.787">
  <g id="Grupo_3364" data-name="Grupo 3364" transform="translate(-36.448 -24.112)">
    <g id="Grupo_843" data-name="Grupo 843">
      <path id="Caminho_2989" data-name="Caminho 2989" d="M43.892,43.648H38.306A1.611,1.611,0,0,1,36.7,42.034V30.83a1.523,1.523,0,0,1,1.507-1.537c.033,0,2.29,0,2.323,0H40.6a.254.254,0,1,1,0,.508h-.073c-.554-.051-3.216-.413-3.318.911,0,.038,0,.077,0,.115V42a1.109,1.109,0,0,0,1.074,1.143h5.612A1.359,1.359,0,0,0,45.251,42V34.8a.254.254,0,0,1,.509,0v7.212A1.843,1.843,0,0,1,43.892,43.648Z" stroke="#707070" stroke-width="0.5"/>
      <path id="Caminho_2990" data-name="Caminho 2990" d="M45.511,41.418H37.15a.255.255,0,0,1,0-.509h8.361a.255.255,0,0,1,0,.509Z" stroke="#707070" stroke-width="0.5"/>
      <path id="Caminho_2991" data-name="Caminho 2991" d="M41.328,32.051H37.156a.254.254,0,1,1,0-.508h4.172a.254.254,0,1,1,0,.508Z" stroke="#707070" stroke-width="0.5"/>
      <path id="Caminho_2992" data-name="Caminho 2992" d="M41.632,42.641H40.409a.254.254,0,1,1,0-.508h1.223a.254.254,0,1,1,0,.508Z" stroke="#707070" stroke-width="0.5"/>
    </g>
    <g id="WA">
      <g id="Grupo_5706" data-name="Grupo 5706">
        <g id="Grupo_5704" data-name="Grupo 5704">
          <path id="Caminho_15871" data-name="Caminho 15871" d="M40.857,34.672a.148.148,0,0,1-.117-.051.132.132,0,0,1-.032-.165l.75-2.262a5.065,5.065,0,0,1-.766-2.679,5.152,5.152,0,1,1,2.475,4.4L40.9,34.65A.062.062,0,0,1,40.857,34.672Zm2.329-1.1a.127.127,0,0,1,.083.032,4.833,4.833,0,1,0,2.577-8.929h0a4.827,4.827,0,0,0-4.827,4.827v.009a4.855,4.855,0,0,0,.75,2.577.135.135,0,0,1,.016.134c0,.016-.016.031-.032.05l-.635,1.964,2.011-.664Z" stroke="#707070" stroke-width="0.5"/>
        </g>
        <g id="Grupo_5705" data-name="Grupo 5705">
          <path id="Caminho_15872" data-name="Caminho 15872" d="M47.174,32.057a4.158,4.158,0,0,1-1.662-.448A4.733,4.733,0,0,1,43.4,29.731a2.758,2.758,0,0,1-.448-1.3,1.619,1.619,0,0,1,.636-1.363.466.466,0,0,1,.3-.1h.3a.478.478,0,0,1,.432.283l.448,1.1a.49.49,0,0,1-.083.5l-.282.318a.151.151,0,0,0-.016.165c.016.016.032.067.1.15a3.281,3.281,0,0,0,1.271,1c.083.032.134.051.165.067a.135.135,0,0,0,.15-.051l.232-.349a.464.464,0,0,1,.467-.2l1.182.185a.483.483,0,0,1,.381.349l.067.3a.424.424,0,0,1-.032.318h0a1.591,1.591,0,0,1-1.182.953A2.26,2.26,0,0,0,47.174,32.057ZM43.9,27.291a.134.134,0,0,0-.083.032,1.3,1.3,0,0,0-.53,1.08,2.491,2.491,0,0,0,.4,1.147A4.454,4.454,0,0,0,45.649,31.3a3.2,3.2,0,0,0,1.811.4,1.3,1.3,0,0,0,.931-.781.074.074,0,0,0,0-.083l-.051-.3a.124.124,0,0,0-.118-.1l-1.182-.184a.15.15,0,0,0-.133.066l-.232.35a.482.482,0,0,1-.515.2,1.318,1.318,0,0,1-.216-.083,3.694,3.694,0,0,1-1.414-1.115c-.066-.083-.1-.133-.133-.184a.475.475,0,0,1,.067-.55l.282-.318a.156.156,0,0,0,.032-.149l-.448-1.1a.131.131,0,0,0-.133-.083Z" stroke="#707070" stroke-width="0.5"/>
        </g>
      </g>
    </g>
  </g>
</svg>
