<svg xmlns="http://www.w3.org/2000/svg" width="41.578" height="55.757" viewBox="0 0 41.578 55.757">
  <g id="Grupo_5583" data-name="Grupo 5583" transform="translate(-36.248 -23.912)">
    <g id="Grupo_843" data-name="Grupo 843" transform="translate(36.698 38.388)">
      <path id="Caminho_2989" data-name="Caminho 2989" d="M57.16,70.124H41.272A4.581,4.581,0,0,1,36.7,65.533V33.665a4.331,4.331,0,0,1,4.286-4.372c.094,0,6.514,0,6.607.009H47.8a.722.722,0,1,1,0,1.445h-.208c-1.576-.145-9.147-1.175-9.438,2.591-.009.108-.011.219-.011.327V65.442A3.155,3.155,0,0,0,41.2,68.693l.074,0H57.16a3.867,3.867,0,0,0,3.865-3.254V44.954a.724.724,0,0,1,1.448,0V65.468A5.242,5.242,0,0,1,57.16,70.124Z" transform="translate(-36.698 -29.293)" fill="#444" stroke="#444" stroke-width="0.9"/>
      <path id="Caminho_2990" data-name="Caminho 2990" d="M61.391,42.357H37.609a.724.724,0,0,1,0-1.448H61.391a.724.724,0,0,1,0,1.448Z" transform="translate(-36.323 -7.869)" fill="#444" stroke="#444" stroke-width="0.9"/>
      <path id="Caminho_2991" data-name="Caminho 2991" d="M49.493,32.988H37.626a.722.722,0,1,1,0-1.445H49.493a.722.722,0,0,1,0,1.445Z" transform="translate(-36.323 -25.143)" fill="#444" stroke="#444" stroke-width="0.9"/>
      <path id="Caminho_2992" data-name="Caminho 2992" d="M44.356,43.578H40.877a.722.722,0,0,1,0-1.445h3.479a.722.722,0,1,1,0,1.445Z" transform="translate(-30.322 -5.611)" fill="#444" stroke="#444" stroke-width="0.9"/>
    </g>
    <g id="WA" transform="translate(48.058 24.362)">
      <g id="Grupo_5706" data-name="Grupo 5706">
        <g id="Grupo_5704" data-name="Grupo 5704">
          <path id="Caminho_15871" data-name="Caminho 15871" d="M41.161,53.687a.422.422,0,0,1-.333-.145.375.375,0,0,1-.091-.469l2.133-6.434a14.406,14.406,0,0,1-2.179-7.62,14.654,14.654,0,1,1,7.04,12.527L41.3,53.625A.177.177,0,0,1,41.161,53.687Zm6.625-3.117a.36.36,0,0,1,.236.091,13.748,13.748,0,1,0,7.33-25.4h0a13.729,13.729,0,0,0-13.73,13.73v.026a13.809,13.809,0,0,0,2.133,7.33.384.384,0,0,1,.046.381c0,.046-.046.088-.091.142L41.9,52.459l5.72-1.889Z" transform="translate(-40.692 -24.362)" fill="#444" stroke="#444" stroke-width="0.9"/>
        </g>
        <g id="Grupo_5705" data-name="Grupo 5705" transform="translate(6.42 7.426)">
          <path id="Caminho_15872" data-name="Caminho 15872" d="M54.966,41.434a11.826,11.826,0,0,1-4.727-1.274,13.464,13.464,0,0,1-6.01-5.342,7.845,7.845,0,0,1-1.274-3.686,4.606,4.606,0,0,1,1.809-3.877,1.324,1.324,0,0,1,.848-.282h.85a1.358,1.358,0,0,1,1.229.8L48.964,30.9a1.393,1.393,0,0,1-.236,1.419l-.8.9a.429.429,0,0,0-.046.469c.046.046.091.191.279.427a9.332,9.332,0,0,0,3.615,2.836c.236.091.381.145.469.191A.383.383,0,0,0,52.671,37l.66-.993a1.318,1.318,0,0,1,1.328-.572l3.362.526a1.375,1.375,0,0,1,1.084.993l.191.85a1.206,1.206,0,0,1-.091.9h0a4.525,4.525,0,0,1-3.362,2.711A6.429,6.429,0,0,0,54.966,41.434ZM45.648,27.878a.381.381,0,0,0-.236.091A3.693,3.693,0,0,0,43.9,31.041,7.084,7.084,0,0,0,45.042,34.3a12.67,12.67,0,0,0,5.586,4.972,9.091,9.091,0,0,0,5.151,1.138,3.7,3.7,0,0,0,2.648-2.221.21.21,0,0,0,0-.236l-.145-.85a.352.352,0,0,0-.336-.279L54.585,36.3a.427.427,0,0,0-.378.188l-.66,1a1.372,1.372,0,0,1-1.465.569,3.747,3.747,0,0,1-.614-.236,10.508,10.508,0,0,1-4.022-3.171c-.188-.236-.279-.378-.378-.523a1.351,1.351,0,0,1,.191-1.564l.8-.9a.443.443,0,0,0,.091-.424l-1.274-3.117a.372.372,0,0,0-.378-.236Z" transform="translate(-42.949 -26.973)" fill="#444" stroke="#444" stroke-width="0.9"/>
        </g>
      </g>
    </g>
  </g>
</svg>
