<svg xmlns="http://www.w3.org/2000/svg" width="19.035" height="19.052" viewBox="0 0 19.035 19.052">
  <g id="Grupo_5544" data-name="Grupo 5544" transform="translate(-873 -1557)">
    <g id="Grupo_5543" data-name="Grupo 5543" transform="translate(873 1557)">
      <g id="Grupo_5533" data-name="Grupo 5533" transform="translate(9.008 0)">
        <g id="Grupo_5531" data-name="Grupo 5531" transform="translate(0 0)">
          <path id="Caminho_15408" data-name="Caminho 15408" d="M250.4,186.241v-7.069c0-.184.05-.251.234-.267,1.788-.251,3.56-.518,5.348-.769,1.487-.217,2.958-.435,4.446-.635v8.741Z" transform="translate(-250.4 -177.5)" fill="#4ed5a1"/>
        </g>
        <g id="Grupo_5532" data-name="Grupo 5532" transform="translate(0 0)">
          <path id="Caminho_15409" data-name="Caminho 15409" d="M250.4,186.241v-7.069c0-.184.05-.251.234-.267,1.788-.251,3.56-.518,5.348-.769,1.487-.217,2.958-.435,4.446-.635v8.741Z" transform="translate(-250.4 -177.5)" fill="#4ed5a1"/>
        </g>
      </g>
      <g id="Grupo_5536" data-name="Grupo 5536" transform="translate(9.008 10.295)">
        <g id="Grupo_5534" data-name="Grupo 5534" transform="translate(0)">
          <path id="Caminho_15410" data-name="Caminho 15410" d="M260.428,239.1v8.757l-2.741-.4c-1.671-.251-3.359-.485-5.03-.735l-2.106-.3c-.1-.017-.15-.05-.15-.167v-7.036c0-.033.017-.067.017-.117Z" transform="translate(-250.4 -239.1)" fill="#4ed5a1"/>
        </g>
        <g id="Grupo_5535" data-name="Grupo 5535" transform="translate(0)">
          <path id="Caminho_15411" data-name="Caminho 15411" d="M260.428,239.1v8.757l-2.741-.4c-1.671-.251-3.359-.485-5.03-.735l-2.106-.3c-.1-.017-.15-.05-.15-.167v-7.036c0-.033.017-.067.017-.117Z" transform="translate(-250.4 -239.1)" fill="#4ed5a1"/>
        </g>
      </g>
      <g id="Grupo_5539" data-name="Grupo 5539" transform="translate(0 1.588)">
        <g id="Grupo_5537" data-name="Grupo 5537">
          <path id="Caminho_15412" data-name="Caminho 15412" d="M196.5,194.153v-6.067c2.49-.368,4.964-.719,7.454-1.086v7.136C201.48,194.153,199.007,194.153,196.5,194.153Z" transform="translate(-196.5 -187)" fill="#4ed5a1"/>
        </g>
        <g id="Grupo_5538" data-name="Grupo 5538">
          <path id="Caminho_15413" data-name="Caminho 15413" d="M196.5,194.153v-6.067c2.49-.368,4.964-.719,7.454-1.086v7.136C201.48,194.153,199.007,194.153,196.5,194.153Z" transform="translate(-196.5 -187)" fill="#4ed5a1"/>
        </g>
      </g>
      <g id="Grupo_5542" data-name="Grupo 5542" transform="translate(0 10.295)">
        <g id="Grupo_5540" data-name="Grupo 5540">
          <path id="Caminho_15414" data-name="Caminho 15414" d="M203.954,246.253c-2.49-.368-4.964-.719-7.454-1.086V239.1h7.454Z" transform="translate(-196.5 -239.1)" fill="#4ed5a1"/>
        </g>
        <g id="Grupo_5541" data-name="Grupo 5541">
          <path id="Caminho_15415" data-name="Caminho 15415" d="M203.954,246.253c-2.49-.368-4.964-.719-7.454-1.086V239.1h7.454Z" transform="translate(-196.5 -239.1)" fill="#4ed5a1"/>
        </g>
      </g>
    </g>
  </g>
</svg>
